<?xml version="1.0" encoding="utf-8"?>
<svg id="master-artboard" viewBox="0 0 2800 2800" version="1.1" xmlns="http://www.w3.org/2000/svg" x="0px" y="0px" enable-background="new 0 0 2800 2800" width="2800px" height="2800px">
















<path d="M 0 0 H 2800 V 2800 H 0 V 0 Z" fill="#07D0E5"/>
<g>
	<path d="M 2332.799988 1477.199951 A 934.799988 934.799988 0 0 1 1398 2411.999939 A 934.799988 934.799988 0 0 1 463.200012 1477.199951 A 934.799988 934.799988 0 0 1 1398 542.399963 A 934.799988 934.799988 0 0 1 2332.799988 1477.199951 Z" fill="#06A4CE"/>
	<g>
		<g>
			<path fill="#FC8006" d="M957.2,2080H562.9v-549.4h394.3c8.9,0,16.1,7.2,16.1,16v517.4C973.3,2072.9,966.1,2080,957.2,2080z"/>
			<path fill="#DFDEDA" d="M937.2,2062.8H587.1v-512.9h350.1c8.9,0,16.1,7.2,16.1,16v481C953.3,2055.7,946.1,2062.8,937.2,2062.8z"/>
			<g>
				<path fill="#EE4243" d="M669.8,1556.3h-64.7v-29.5c0-4.7,3.8-8.5,8.5-8.5h47.7c4.7,0,8.5,3.8,8.5,8.5V1556.3z"/>
				<path fill="#25B474" d="M765.2,1556.3h-64.7v-29.5c0-4.7,3.8-8.5,8.5-8.5h47.7c4.7,0,8.5,3.8,8.5,8.5V1556.3z"/>
				<path fill="#FFDF00" d="M860.6,1556.3h-64.7v-29.5c0-4.7,3.8-8.5,8.5-8.5h47.7c4.7,0,8.5,3.8,8.5,8.5V1556.3z"/>
				<path d="M 605.099976 1543.5 H 669.799973 V 1556.3 H 605.099976 V 1543.5 Z" fill="#D22E37"/>
				<path d="M 700.5 1543.5 H 765.199997 V 1556.3 H 700.5 V 1543.5 Z" fill="#018747"/>
				<path d="M 795.900024 1543.5 H 860.600021 V 1556.3 H 795.900024 V 1543.5 Z" fill="#F0A31F"/>
			</g>
			<path fill="#FFFFFF" d="M926.9,2062.8H576.8v-512.9h350.1c8.9,0,16.1,7.2,16.1,16v481C943,2055.7,935.8,2062.8,926.9,2062.8z"/>
			<path d="M 561.900024 1549.400024 H 585.000025 V 2062.900024 H 561.900024 V 1549.400024 Z" fill="#DFDEDA"/>
			<g>
				<path fill="#FC8006" d="M517,2080.8h54v-550.1h-54c-12,0-21.7,9.6-21.7,21.5v507.2C495.4,2071.2,505.1,2080.8,517,2080.8z"/>
				<path d="M 553.599976 1530.699951 H 570.999975 V 2080.799927 H 553.599976 V 1530.699951 Z" fill="#E85300"/>
			</g>
			<g>
				<g>
					<path d="M 535.099976 1589.599976 A 13.5 13.3 0 0 1 521.599976 1602.899976 A 13.5 13.3 0 0 1 508.099976 1589.599976 A 13.5 13.3 0 0 1 521.599976 1576.299975 A 13.5 13.3 0 0 1 535.099976 1589.599976 Z" fill="#E85300"/>
				</g>
				<g>
					<path fill="#E1E0E1" d="M521.6,1595.3h-41c-3.2,0-5.8-2.6-5.8-5.7c0-3.2,2.6-5.7,5.8-5.7h41c3.2,0,5.8,2.6,5.8,5.7&#10;&#9;&#9;&#9;&#9;&#9;&#9;C527.4,1592.7,524.8,1595.3,521.6,1595.3z"/>
				</g>
			</g>
			<g>
				<g>
					<path d="M 535.099976 1673.199951 A 13.5 13.3 0 0 1 521.599976 1686.499951 A 13.5 13.3 0 0 1 508.099976 1673.199951 A 13.5 13.3 0 0 1 521.599976 1659.899951 A 13.5 13.3 0 0 1 535.099976 1673.199951 Z" fill="#E85300"/>
				</g>
				<g>
					<path fill="#E1E0E1" d="M521.6,1679h-41c-3.2,0-5.8-2.6-5.8-5.7c0-3.2,2.6-5.7,5.8-5.7h41c3.2,0,5.8,2.6,5.8,5.7&#10;&#9;&#9;&#9;&#9;&#9;&#9;C527.4,1676.4,524.8,1679,521.6,1679z"/>
				</g>
			</g>
			<g>
				<g>
					<path d="M 535.099976 1756.900024 A 13.5 13.3 0 0 1 521.599976 1770.200025 A 13.5 13.3 0 0 1 508.099976 1756.900024 A 13.5 13.3 0 0 1 521.599976 1743.600024 A 13.5 13.3 0 0 1 535.099976 1756.900024 Z" fill="#E85300"/>
				</g>
				<g>
					<path fill="#E1E0E1" d="M521.6,1762.7h-41c-3.2,0-5.8-2.6-5.8-5.7c0-3.2,2.6-5.7,5.8-5.7h41c3.2,0,5.8,2.6,5.8,5.7&#10;&#9;&#9;&#9;&#9;&#9;&#9;C527.4,1760.1,524.8,1762.7,521.6,1762.7z"/>
				</g>
			</g>
			<g>
				<g>
					<path d="M 535.099976 1840.599976 A 13.5 13.3 0 0 1 521.599976 1853.899976 A 13.5 13.3 0 0 1 508.099976 1840.599976 A 13.5 13.3 0 0 1 521.599976 1827.299975 A 13.5 13.3 0 0 1 535.099976 1840.599976 Z" fill="#E85300"/>
				</g>
				<g>
					<path fill="#FFFFFF" d="M521.6,1846.3h-41c-3.2,0-5.8-2.6-5.8-5.7c0-3.2,2.6-5.7,5.8-5.7h41c3.2,0,5.8,2.6,5.8,5.7&#10;&#9;&#9;&#9;&#9;&#9;&#9;C527.4,1843.8,524.8,1846.3,521.6,1846.3z"/>
				</g>
			</g>
			<g>
				<g>
					<path d="M 535.099976 1924.300049 A 13.5 13.3 0 0 1 521.599976 1937.600049 A 13.5 13.3 0 0 1 508.099976 1924.300049 A 13.5 13.3 0 0 1 521.599976 1911.000049 A 13.5 13.3 0 0 1 535.099976 1924.300049 Z" fill="#E85300"/>
				</g>
				<g>
					<path fill="#FFFFFF" d="M521.6,1930h-41c-3.2,0-5.8-2.6-5.8-5.7c0-3.2,2.6-5.7,5.8-5.7h41c3.2,0,5.8,2.6,5.8,5.7&#10;&#9;&#9;&#9;&#9;&#9;&#9;C527.4,1927.5,524.8,1930,521.6,1930z"/>
				</g>
			</g>
			<g>
				<g>
					<path d="M 535.099976 2008 A 13.5 13.3 0 0 1 521.599976 2021.3 A 13.5 13.3 0 0 1 508.099976 2008 A 13.5 13.3 0 0 1 521.599976 1994.7 A 13.5 13.3 0 0 1 535.099976 2008 Z" fill="#E85300"/>
				</g>
				<g>
					<path fill="#FFFFFF" d="M521.6,2013.7h-41c-3.2,0-5.8-2.6-5.8-5.7c0-3.2,2.6-5.7,5.8-5.7h41c3.2,0,5.8,2.6,5.8,5.7&#10;&#9;&#9;&#9;&#9;&#9;&#9;C527.4,2011.1,524.8,2013.7,521.6,2013.7z"/>
				</g>
			</g>
		</g>
		<path fill="#D3D3D3" d="M855.5,1607.7h-85c-1.8,0-3.3-1.5-3.3-3.3l0,0c0-1.8,1.5-3.3,3.3-3.3h85c1.8,0,3.3,1.5,3.3,3.3l0,0&#10;&#9;&#9;&#9;C858.8,1606.2,857.4,1607.7,855.5,1607.7z"/>
		<path fill="#D3D3D3" d="M708.8,1746.9h-51.1c-1.8,0-3.3-1.5-3.3-3.3l0,0c0-1.8,1.5-3.3,3.3-3.3h51.1c1.8,0,3.3,1.5,3.3,3.3l0,0&#10;&#9;&#9;&#9;C712.1,1745.4,710.6,1746.9,708.8,1746.9z"/>
		<path fill="#D3D3D3" d="M708.8,1769.2h-72.5c-1.8,0-3.3-1.5-3.3-3.3l0,0c0-1.8,1.5-3.3,3.3-3.3h72.5c1.8,0,3.3,1.5,3.3,3.3l0,0&#10;&#9;&#9;&#9;C712.1,1767.7,710.6,1769.2,708.8,1769.2z"/>
		<path fill="#D3D3D3" d="M708.8,1788h-72.5c-1.8,0-3.3-1.5-3.3-3.3l0,0c0-1.8,1.5-3.3,3.3-3.3h72.5c1.8,0,3.3,1.5,3.3,3.3l0,0&#10;&#9;&#9;&#9;C712.1,1786.6,710.6,1788,708.8,1788z"/>
		<path fill="#D3D3D3" d="M708.8,1806.9h-72.5c-1.8,0-3.3-1.5-3.3-3.3l0,0c0-1.8,1.5-3.3,3.3-3.3h72.5c1.8,0,3.3,1.5,3.3,3.3l0,0&#10;&#9;&#9;&#9;C712.1,1805.4,710.6,1806.9,708.8,1806.9z"/>
		<path fill="#D3D3D3" d="M894.8,1842.5H636.3c-1.8,0-3.3-1.5-3.3-3.3l0,0c0-1.8,1.5-3.3,3.3-3.3h258.5c1.8,0,3.3,1.5,3.3,3.3l0,0&#10;&#9;&#9;&#9;C898.1,1841,896.6,1842.5,894.8,1842.5z"/>
		<path fill="#D3D3D3" d="M894.8,1865.5H636.3c-1.8,0-3.3-1.5-3.3-3.3l0,0c0-1.8,1.5-3.3,3.3-3.3h258.5c1.8,0,3.3,1.5,3.3,3.3l0,0&#10;&#9;&#9;&#9;C898.1,1864.1,896.6,1865.5,894.8,1865.5z"/>
		<path fill="#D3D3D3" d="M894.8,1888.6H636.3c-1.8,0-3.3-1.5-3.3-3.3l0,0c0-1.8,1.5-3.3,3.3-3.3h258.5c1.8,0,3.3,1.5,3.3,3.3l0,0&#10;&#9;&#9;&#9;C898.1,1887.1,896.6,1888.6,894.8,1888.6z"/>
		<path fill="#D3D3D3" d="M894.8,1911.6H636.3c-1.8,0-3.3-1.5-3.3-3.3l0,0c0-1.8,1.5-3.3,3.3-3.3h258.5c1.8,0,3.3,1.5,3.3,3.3l0,0&#10;&#9;&#9;&#9;C898.1,1910.1,896.6,1911.6,894.8,1911.6z"/>
		<path fill="#D3D3D3" d="M894.8,1934.6H636.3c-1.8,0-3.3-1.5-3.3-3.3l0,0c0-1.8,1.5-3.3,3.3-3.3h258.5c1.8,0,3.3,1.5,3.3,3.3l0,0&#10;&#9;&#9;&#9;C898.1,1933.2,896.6,1934.6,894.8,1934.6z"/>
		<path fill="#D3D3D3" d="M894.8,1957.7H636.3c-1.8,0-3.3-1.5-3.3-3.3l0,0c0-1.8,1.5-3.3,3.3-3.3h258.5c1.8,0,3.3,1.5,3.3,3.3l0,0&#10;&#9;&#9;&#9;C898.1,1956.2,896.6,1957.7,894.8,1957.7z"/>
		<path fill="#D3D3D3" d="M894.8,1980.7H636.3c-1.8,0-3.3-1.5-3.3-3.3l0,0c0-1.8,1.5-3.3,3.3-3.3h258.5c1.8,0,3.3,1.5,3.3,3.3l0,0&#10;&#9;&#9;&#9;C898.1,1979.2,896.6,1980.7,894.8,1980.7z"/>
		<path fill="#D3D3D3" d="M894.8,2003.7H636.3c-1.8,0-3.3-1.5-3.3-3.3l0,0c0-1.8,1.5-3.3,3.3-3.3h258.5c1.8,0,3.3,1.5,3.3,3.3l0,0&#10;&#9;&#9;&#9;C898.1,2002.3,896.6,2003.7,894.8,2003.7z"/>
		<path fill="#D3D3D3" d="M855.5,1630.8h-85c-1.8,0-3.3-1.5-3.3-3.3l0,0c0-1.8,1.5-3.3,3.3-3.3h85c1.8,0,3.3,1.5,3.3,3.3l0,0&#10;&#9;&#9;&#9;C858.8,1629.4,857.4,1630.8,855.5,1630.8z"/>
		<path fill="#D3D3D3" d="M855.5,1654h-85c-1.8,0-3.3-1.5-3.3-3.3l0,0c0-1.8,1.5-3.3,3.3-3.3h85c1.8,0,3.3,1.5,3.3,3.3l0,0&#10;&#9;&#9;&#9;C858.8,1652.5,857.4,1654,855.5,1654z"/>
		<path fill="#D3D3D3" d="M855.5,1677.2h-85c-1.8,0-3.3-1.5-3.3-3.3l0,0c0-1.8,1.5-3.3,3.3-3.3h85c1.8,0,3.3,1.5,3.3,3.3l0,0&#10;&#9;&#9;&#9;C858.8,1675.7,857.4,1677.2,855.5,1677.2z"/>
		<g>
			<path fill="#25B474" d="M671.6,1637.6l27.4-55.8c-23.7-10.1-52.2-5.5-71.6,13.6c-9.1,9-15,20.1-17.5,31.8L671.6,1637.6z"/>
			<path fill="#EE4243" d="M671.8,1643.9l-63-10.6c-2.3,19,3.9,38.7,18.6,53.3c24.6,24.4,64.1,25.1,89.7,2.1L671.8,1643.9z"/>
			<path fill="#FFDF00" d="M686.7,1630.8l59.1-5.6c-1.9-13.3-8-26.1-18.4-36.4c-4.5-4.4-9.4-8.1-14.7-10.9L686.7,1630.8z"/>
			<path fill="#48AAB7" d="M680.2,1643.5l41.2,40.9c12-13.1,17.6-29.8,16.8-46.3L680.2,1643.5z"/>
		</g>
		<g>
			<g>
				<path d="M 738.299988 1802.5 H 859.099991 V 1803.7 H 738.299988 V 1802.5 Z" fill="#676767"/>
			</g>
			<g>
				<g>
					<g>
						<g>
							<path d="M 858.5 1710.199951 H 859.1 V 1711.099951 H 858.5 V 1710.199951 Z" fill="#676767"/>
						</g>
						<g>
							<path fill="#676767" d="M858.5,1712.9h0.6v1.8h-0.6V1712.9z M858.5,1799.2h0.6v1.8h-0.6V1799.2z M858.5,1795.6h0.6v1.8h-0.6&#10;&#9;&#9;&#9;&#9;&#9;&#9;&#9;&#9;V1795.6z M858.5,1792h0.6v1.8h-0.6V1792z M858.5,1788.4h0.6v1.8h-0.6V1788.4z M858.5,1784.8h0.6v1.8h-0.6V1784.8z&#10;&#9;&#9;&#9;&#9;&#9;&#9;&#9;&#9; M858.5,1781.2h0.6v1.8h-0.6V1781.2z M858.5,1777.6h0.6v1.8h-0.6V1777.6z M858.5,1774h0.6v1.8h-0.6V1774z M858.5,1770.4h0.6&#10;&#9;&#9;&#9;&#9;&#9;&#9;&#9;&#9;v1.8h-0.6V1770.4z M858.5,1766.8h0.6v1.8h-0.6V1766.8z M858.5,1763.2h0.6v1.8h-0.6V1763.2z M858.5,1759.6h0.6v1.8h-0.6&#10;&#9;&#9;&#9;&#9;&#9;&#9;&#9;&#9;V1759.6z M858.5,1756h0.6v1.8h-0.6V1756z M858.5,1752.4h0.6v1.8h-0.6V1752.4z M858.5,1748.8h0.6v1.8h-0.6V1748.8z&#10;&#9;&#9;&#9;&#9;&#9;&#9;&#9;&#9; M858.5,1745.2h0.6v1.8h-0.6V1745.2z M858.5,1741.6h0.6v1.8h-0.6V1741.6z M858.5,1738h0.6v1.8h-0.6V1738z M858.5,1734.5h0.6&#10;&#9;&#9;&#9;&#9;&#9;&#9;&#9;&#9;v1.8h-0.6V1734.5z M858.5,1730.9h0.6v1.8h-0.6V1730.9z M858.5,1727.3h0.6v1.8h-0.6V1727.3z M858.5,1723.7h0.6v1.8h-0.6&#10;&#9;&#9;&#9;&#9;&#9;&#9;&#9;&#9;V1723.7z M858.5,1720.1h0.6v1.8h-0.6V1720.1z M858.5,1716.5h0.6v1.8h-0.6V1716.5z"/>
						</g>
						<g>
							<path d="M 858.5 1802.800049 H 859.1 V 1803.700049 H 858.5 V 1802.800049 Z" fill="#676767"/>
						</g>
					</g>
					<g>
						<path d="M 841.299988 1710.199951 H 841.899988 V 1711.099951 H 841.299988 V 1710.199951 Z" fill="#676767"/>
						<g>
							<path fill="#676767" d="M841.3,1712.9h0.6v1.8h-0.6V1712.9z M841.3,1799.2h0.6v1.8h-0.6V1799.2z M841.3,1795.6h0.6v1.8h-0.6&#10;&#9;&#9;&#9;&#9;&#9;&#9;&#9;&#9;V1795.6z M841.3,1792h0.6v1.8h-0.6V1792z M841.3,1788.4h0.6v1.8h-0.6V1788.4z M841.3,1784.8h0.6v1.8h-0.6V1784.8z&#10;&#9;&#9;&#9;&#9;&#9;&#9;&#9;&#9; M841.3,1781.2h0.6v1.8h-0.6V1781.2z M841.3,1777.6h0.6v1.8h-0.6V1777.6z M841.3,1774h0.6v1.8h-0.6V1774z M841.3,1770.4h0.6&#10;&#9;&#9;&#9;&#9;&#9;&#9;&#9;&#9;v1.8h-0.6V1770.4z M841.3,1766.8h0.6v1.8h-0.6V1766.8z M841.3,1763.2h0.6v1.8h-0.6V1763.2z M841.3,1759.6h0.6v1.8h-0.6&#10;&#9;&#9;&#9;&#9;&#9;&#9;&#9;&#9;V1759.6z M841.3,1756h0.6v1.8h-0.6V1756z M841.3,1752.4h0.6v1.8h-0.6V1752.4z M841.3,1748.8h0.6v1.8h-0.6V1748.8z&#10;&#9;&#9;&#9;&#9;&#9;&#9;&#9;&#9; M841.3,1745.2h0.6v1.8h-0.6V1745.2z M841.3,1741.6h0.6v1.8h-0.6V1741.6z M841.3,1738h0.6v1.8h-0.6V1738z M841.3,1734.5h0.6&#10;&#9;&#9;&#9;&#9;&#9;&#9;&#9;&#9;v1.8h-0.6V1734.5z M841.3,1730.9h0.6v1.8h-0.6V1730.9z M841.3,1727.3h0.6v1.8h-0.6V1727.3z M841.3,1723.7h0.6v1.8h-0.6&#10;&#9;&#9;&#9;&#9;&#9;&#9;&#9;&#9;V1723.7z M841.3,1720.1h0.6v1.8h-0.6V1720.1z M841.3,1716.5h0.6v1.8h-0.6V1716.5z"/>
						</g>
						<path d="M 841.299988 1802.800049 H 841.899988 V 1803.700049 H 841.299988 V 1802.800049 Z" fill="#676767"/>
					</g>
					<g>
						<path d="M 824.200012 1710.199951 H 824.800012 V 1711.099951 H 824.200012 V 1710.199951 Z" fill="#676767"/>
						<g>
							<path fill="#676767" d="M824.2,1712.9h0.6v1.8h-0.6V1712.9z M824.2,1799.2h0.6v1.8h-0.6V1799.2z M824.2,1795.6h0.6v1.8h-0.6&#10;&#9;&#9;&#9;&#9;&#9;&#9;&#9;&#9;V1795.6z M824.2,1792h0.6v1.8h-0.6V1792z M824.2,1788.4h0.6v1.8h-0.6V1788.4z M824.2,1784.8h0.6v1.8h-0.6V1784.8z&#10;&#9;&#9;&#9;&#9;&#9;&#9;&#9;&#9; M824.2,1781.2h0.6v1.8h-0.6V1781.2z M824.2,1777.6h0.6v1.8h-0.6V1777.6z M824.2,1774h0.6v1.8h-0.6V1774z M824.2,1770.4h0.6&#10;&#9;&#9;&#9;&#9;&#9;&#9;&#9;&#9;v1.8h-0.6V1770.4z M824.2,1766.8h0.6v1.8h-0.6V1766.8z M824.2,1763.2h0.6v1.8h-0.6V1763.2z M824.2,1759.6h0.6v1.8h-0.6&#10;&#9;&#9;&#9;&#9;&#9;&#9;&#9;&#9;V1759.6z M824.2,1756h0.6v1.8h-0.6V1756z M824.2,1752.4h0.6v1.8h-0.6V1752.4z M824.2,1748.8h0.6v1.8h-0.6V1748.8z&#10;&#9;&#9;&#9;&#9;&#9;&#9;&#9;&#9; M824.2,1745.2h0.6v1.8h-0.6V1745.2z M824.2,1741.6h0.6v1.8h-0.6V1741.6z M824.2,1738h0.6v1.8h-0.6V1738z M824.2,1734.5h0.6&#10;&#9;&#9;&#9;&#9;&#9;&#9;&#9;&#9;v1.8h-0.6V1734.5z M824.2,1730.9h0.6v1.8h-0.6V1730.9z M824.2,1727.3h0.6v1.8h-0.6V1727.3z M824.2,1723.7h0.6v1.8h-0.6&#10;&#9;&#9;&#9;&#9;&#9;&#9;&#9;&#9;V1723.7z M824.2,1720.1h0.6v1.8h-0.6V1720.1z M824.2,1716.5h0.6v1.8h-0.6V1716.5z"/>
						</g>
						<path d="M 824.200012 1802.800049 H 824.800012 V 1803.700049 H 824.200012 V 1802.800049 Z" fill="#676767"/>
					</g>
					<g>
						<path d="M 807 1710.199951 H 807.6 V 1711.099951 H 807 V 1710.199951 Z" fill="#676767"/>
						<g>
							<path fill="#676767" d="M807,1712.9h0.6v1.8H807V1712.9z M807,1799.2h0.6v1.8H807V1799.2z M807,1795.6h0.6v1.8H807V1795.6z&#10;&#9;&#9;&#9;&#9;&#9;&#9;&#9;&#9; M807,1792h0.6v1.8H807V1792z M807,1788.4h0.6v1.8H807V1788.4z M807,1784.8h0.6v1.8H807V1784.8z M807,1781.2h0.6v1.8H807&#10;&#9;&#9;&#9;&#9;&#9;&#9;&#9;&#9;V1781.2z M807,1777.6h0.6v1.8H807V1777.6z M807,1774h0.6v1.8H807V1774z M807,1770.4h0.6v1.8H807V1770.4z M807,1766.8h0.6v1.8&#10;&#9;&#9;&#9;&#9;&#9;&#9;&#9;&#9;H807V1766.8z M807,1763.2h0.6v1.8H807V1763.2z M807,1759.6h0.6v1.8H807V1759.6z M807,1756h0.6v1.8H807V1756z M807,1752.4h0.6&#10;&#9;&#9;&#9;&#9;&#9;&#9;&#9;&#9;v1.8H807V1752.4z M807,1748.8h0.6v1.8H807V1748.8z M807,1745.2h0.6v1.8H807V1745.2z M807,1741.6h0.6v1.8H807V1741.6z&#10;&#9;&#9;&#9;&#9;&#9;&#9;&#9;&#9; M807,1738h0.6v1.8H807V1738z M807,1734.5h0.6v1.8H807V1734.5z M807,1730.9h0.6v1.8H807V1730.9z M807,1727.3h0.6v1.8H807&#10;&#9;&#9;&#9;&#9;&#9;&#9;&#9;&#9;V1727.3z M807,1723.7h0.6v1.8H807V1723.7z M807,1720.1h0.6v1.8H807V1720.1z M807,1716.5h0.6v1.8H807V1716.5z"/>
						</g>
						<path d="M 807 1802.800049 H 807.6 V 1803.700049 H 807 V 1802.800049 Z" fill="#676767"/>
					</g>
					<g>
						<path d="M 789.799988 1710.199951 H 790.399988 V 1711.099951 H 789.799988 V 1710.199951 Z" fill="#676767"/>
						<g>
							<path fill="#676767" d="M789.8,1712.9h0.6v1.8h-0.6V1712.9z M789.8,1799.2h0.6v1.8h-0.6V1799.2z M789.8,1795.6h0.6v1.8h-0.6&#10;&#9;&#9;&#9;&#9;&#9;&#9;&#9;&#9;V1795.6z M789.8,1792h0.6v1.8h-0.6V1792z M789.8,1788.4h0.6v1.8h-0.6V1788.4z M789.8,1784.8h0.6v1.8h-0.6V1784.8z&#10;&#9;&#9;&#9;&#9;&#9;&#9;&#9;&#9; M789.8,1781.2h0.6v1.8h-0.6V1781.2z M789.8,1777.6h0.6v1.8h-0.6V1777.6z M789.8,1774h0.6v1.8h-0.6V1774z M789.8,1770.4h0.6&#10;&#9;&#9;&#9;&#9;&#9;&#9;&#9;&#9;v1.8h-0.6V1770.4z M789.8,1766.8h0.6v1.8h-0.6V1766.8z M789.8,1763.2h0.6v1.8h-0.6V1763.2z M789.8,1759.6h0.6v1.8h-0.6&#10;&#9;&#9;&#9;&#9;&#9;&#9;&#9;&#9;V1759.6z M789.8,1756h0.6v1.8h-0.6V1756z M789.8,1752.4h0.6v1.8h-0.6V1752.4z M789.8,1748.8h0.6v1.8h-0.6V1748.8z&#10;&#9;&#9;&#9;&#9;&#9;&#9;&#9;&#9; M789.8,1745.2h0.6v1.8h-0.6V1745.2z M789.8,1741.6h0.6v1.8h-0.6V1741.6z M789.8,1738h0.6v1.8h-0.6V1738z M789.8,1734.5h0.6&#10;&#9;&#9;&#9;&#9;&#9;&#9;&#9;&#9;v1.8h-0.6V1734.5z M789.8,1730.9h0.6v1.8h-0.6V1730.9z M789.8,1727.3h0.6v1.8h-0.6V1727.3z M789.8,1723.7h0.6v1.8h-0.6&#10;&#9;&#9;&#9;&#9;&#9;&#9;&#9;&#9;V1723.7z M789.8,1720.1h0.6v1.8h-0.6V1720.1z M789.8,1716.5h0.6v1.8h-0.6V1716.5z"/>
						</g>
						<path d="M 789.799988 1802.800049 H 790.399988 V 1803.700049 H 789.799988 V 1802.800049 Z" fill="#676767"/>
					</g>
					<g>
						<path d="M 772.700012 1710.199951 H 773.300012 V 1711.099951 H 772.700012 V 1710.199951 Z" fill="#676767"/>
						<g>
							<path fill="#676767" d="M772.7,1712.9h0.6v1.8h-0.6V1712.9z M772.7,1799.2h0.6v1.8h-0.6V1799.2z M772.7,1795.6h0.6v1.8h-0.6&#10;&#9;&#9;&#9;&#9;&#9;&#9;&#9;&#9;V1795.6z M772.7,1792h0.6v1.8h-0.6V1792z M772.7,1788.4h0.6v1.8h-0.6V1788.4z M772.7,1784.8h0.6v1.8h-0.6V1784.8z&#10;&#9;&#9;&#9;&#9;&#9;&#9;&#9;&#9; M772.7,1781.2h0.6v1.8h-0.6V1781.2z M772.7,1777.6h0.6v1.8h-0.6V1777.6z M772.7,1774h0.6v1.8h-0.6V1774z M772.7,1770.4h0.6&#10;&#9;&#9;&#9;&#9;&#9;&#9;&#9;&#9;v1.8h-0.6V1770.4z M772.7,1766.8h0.6v1.8h-0.6V1766.8z M772.7,1763.2h0.6v1.8h-0.6V1763.2z M772.7,1759.6h0.6v1.8h-0.6&#10;&#9;&#9;&#9;&#9;&#9;&#9;&#9;&#9;V1759.6z M772.7,1756h0.6v1.8h-0.6V1756z M772.7,1752.4h0.6v1.8h-0.6V1752.4z M772.7,1748.8h0.6v1.8h-0.6V1748.8z&#10;&#9;&#9;&#9;&#9;&#9;&#9;&#9;&#9; M772.7,1745.2h0.6v1.8h-0.6V1745.2z M772.7,1741.6h0.6v1.8h-0.6V1741.6z M772.7,1738h0.6v1.8h-0.6V1738z M772.7,1734.5h0.6&#10;&#9;&#9;&#9;&#9;&#9;&#9;&#9;&#9;v1.8h-0.6V1734.5z M772.7,1730.9h0.6v1.8h-0.6V1730.9z M772.7,1727.3h0.6v1.8h-0.6V1727.3z M772.7,1723.7h0.6v1.8h-0.6&#10;&#9;&#9;&#9;&#9;&#9;&#9;&#9;&#9;V1723.7z M772.7,1720.1h0.6v1.8h-0.6V1720.1z M772.7,1716.5h0.6v1.8h-0.6V1716.5z"/>
						</g>
						<path d="M 772.700012 1802.800049 H 773.300012 V 1803.700049 H 772.700012 V 1802.800049 Z" fill="#676767"/>
					</g>
					<g>
						<path d="M 755.5 1710.199951 H 756.1 V 1711.099951 H 755.5 V 1710.199951 Z" fill="#676767"/>
						<g>
							<path fill="#676767" d="M755.5,1712.9h0.6v1.8h-0.6V1712.9z M755.5,1799.2h0.6v1.8h-0.6V1799.2z M755.5,1795.6h0.6v1.8h-0.6&#10;&#9;&#9;&#9;&#9;&#9;&#9;&#9;&#9;V1795.6z M755.5,1792h0.6v1.8h-0.6V1792z M755.5,1788.4h0.6v1.8h-0.6V1788.4z M755.5,1784.8h0.6v1.8h-0.6V1784.8z&#10;&#9;&#9;&#9;&#9;&#9;&#9;&#9;&#9; M755.5,1781.2h0.6v1.8h-0.6V1781.2z M755.5,1777.6h0.6v1.8h-0.6V1777.6z M755.5,1774h0.6v1.8h-0.6V1774z M755.5,1770.4h0.6&#10;&#9;&#9;&#9;&#9;&#9;&#9;&#9;&#9;v1.8h-0.6V1770.4z M755.5,1766.8h0.6v1.8h-0.6V1766.8z M755.5,1763.2h0.6v1.8h-0.6V1763.2z M755.5,1759.6h0.6v1.8h-0.6&#10;&#9;&#9;&#9;&#9;&#9;&#9;&#9;&#9;V1759.6z M755.5,1756h0.6v1.8h-0.6V1756z M755.5,1752.4h0.6v1.8h-0.6V1752.4z M755.5,1748.8h0.6v1.8h-0.6V1748.8z&#10;&#9;&#9;&#9;&#9;&#9;&#9;&#9;&#9; M755.5,1745.2h0.6v1.8h-0.6V1745.2z M755.5,1741.6h0.6v1.8h-0.6V1741.6z M755.5,1738h0.6v1.8h-0.6V1738z M755.5,1734.5h0.6&#10;&#9;&#9;&#9;&#9;&#9;&#9;&#9;&#9;v1.8h-0.6V1734.5z M755.5,1730.9h0.6v1.8h-0.6V1730.9z M755.5,1727.3h0.6v1.8h-0.6V1727.3z M755.5,1723.7h0.6v1.8h-0.6&#10;&#9;&#9;&#9;&#9;&#9;&#9;&#9;&#9;V1723.7z M755.5,1720.1h0.6v1.8h-0.6V1720.1z M755.5,1716.5h0.6v1.8h-0.6V1716.5z"/>
						</g>
						<path d="M 755.5 1802.800049 H 756.1 V 1803.700049 H 755.5 V 1802.800049 Z" fill="#676767"/>
					</g>
					<g>
						<g>
							<path d="M 738.299988 1710.199951 H 738.899988 V 1711.099951 H 738.299988 V 1710.199951 Z" fill="#676767"/>
						</g>
						<g>
							<path fill="#676767" d="M738.3,1712.9h0.6v1.8h-0.6V1712.9z M738.3,1799.2h0.6v1.8h-0.6V1799.2z M738.3,1795.6h0.6v1.8h-0.6&#10;&#9;&#9;&#9;&#9;&#9;&#9;&#9;&#9;V1795.6z M738.3,1792h0.6v1.8h-0.6V1792z M738.3,1788.4h0.6v1.8h-0.6V1788.4z M738.3,1784.8h0.6v1.8h-0.6V1784.8z&#10;&#9;&#9;&#9;&#9;&#9;&#9;&#9;&#9; M738.3,1781.2h0.6v1.8h-0.6V1781.2z M738.3,1777.6h0.6v1.8h-0.6V1777.6z M738.3,1774h0.6v1.8h-0.6V1774z M738.3,1770.4h0.6&#10;&#9;&#9;&#9;&#9;&#9;&#9;&#9;&#9;v1.8h-0.6V1770.4z M738.3,1766.8h0.6v1.8h-0.6V1766.8z M738.3,1763.2h0.6v1.8h-0.6V1763.2z M738.3,1759.6h0.6v1.8h-0.6&#10;&#9;&#9;&#9;&#9;&#9;&#9;&#9;&#9;V1759.6z M738.3,1756h0.6v1.8h-0.6V1756z M738.3,1752.4h0.6v1.8h-0.6V1752.4z M738.3,1748.8h0.6v1.8h-0.6V1748.8z&#10;&#9;&#9;&#9;&#9;&#9;&#9;&#9;&#9; M738.3,1745.2h0.6v1.8h-0.6V1745.2z M738.3,1741.6h0.6v1.8h-0.6V1741.6z M738.3,1738h0.6v1.8h-0.6V1738z M738.3,1734.5h0.6&#10;&#9;&#9;&#9;&#9;&#9;&#9;&#9;&#9;v1.8h-0.6V1734.5z M738.3,1730.9h0.6v1.8h-0.6V1730.9z M738.3,1727.3h0.6v1.8h-0.6V1727.3z M738.3,1723.7h0.6v1.8h-0.6&#10;&#9;&#9;&#9;&#9;&#9;&#9;&#9;&#9;V1723.7z M738.3,1720.1h0.6v1.8h-0.6V1720.1z M738.3,1716.5h0.6v1.8h-0.6V1716.5z"/>
						</g>
						<g>
							<path d="M 738.299988 1802.800049 H 738.899988 V 1803.700049 H 738.299988 V 1802.800049 Z" fill="#676767"/>
						</g>
					</g>
				</g>
			</g>
			<path d="M 789.700012 1783.300049 H 859.100014 V 1795.700048 H 789.700012 V 1783.300049 Z" fill="#25B474"/>
			<path d="M 810.599976 1761.199951 H 859.099976 V 1773.599951 H 810.599976 V 1761.199951 Z" fill="#48AAB7"/>
			<path d="M 755.5 1739 H 859.099998 V 1751.4 H 755.5 V 1739 Z" fill="#EE4243"/>
			<path d="M 772.599976 1716.900024 H 859.099976 V 1729.300024 H 772.599976 V 1716.900024 Z" fill="#FFDF00"/>
		</g>
	</g>
	<g>
		<g>
			<linearGradient id="SVGID_10_" gradientUnits="userSpaceOnUse" x1="1405.3379" y1="1926.0875" x2="1405.3379" y2="1030.3055">
				<stop offset="4.838710e-002" style="stop-color:#1A1A1A"/>
				<stop offset="0.4464" style="stop-color:#1D1D1D"/>
				<stop offset="0.7738" style="stop-color:#272727"/>
				<stop offset="1" style="stop-color:#333333"/>
			</linearGradient>
			<path fill="url(#SVGID_10_)" d="M1985.4,1018H1405H825.3c-28.8,0-52.1,23.3-52.1,52.1v802.6c0,28.8,23.3,52.1,52.1,52.1h1160.1&#10;&#9;&#9;&#9;&#9;c28.8,0,52.1-23.3,52.1-52.1v-71.9v-730.7C2037.5,1041.3,2014.1,1018,1985.4,1018z"/>
			<linearGradient id="SVGID_11_" gradientUnits="userSpaceOnUse" x1="773.2232" y1="1862.6965" x2="2037.4539" y2="1862.6965">
				<stop offset="4.838710e-002" style="stop-color:#212121"/>
				<stop offset="1" style="stop-color:#333333"/>
			</linearGradient>
			<path fill="url(#SVGID_11_)" d="M1405,1848.2h24.1c8.5,0,15.3,6.9,15.3,15.3s-6.9,15.3-15.3,15.3H1405v45.9h73.3h507.1&#10;&#9;&#9;&#9;&#9;c28.8,0,52.1-23.3,52.1-52.1v-71.9H1405V1848.2z"/>
			<linearGradient id="SVGID_12_" gradientUnits="userSpaceOnUse" x1="1721.207" y1="1924.6903" x2="1721.207" y2="1800.7026">
				<stop offset="0" style="stop-color:#C1D4E1"/>
				<stop offset="1" style="stop-color:#DEEBF2"/>
			</linearGradient>
			<path fill="url(#SVGID_12_)" d="M1405,1848.2h24.1c8.5,0,15.3,6.9,15.3,15.3s-6.9,15.3-15.3,15.3H1405v45.9h73.3h507.1&#10;&#9;&#9;&#9;&#9;c28.8,0,52.1-23.3,52.1-52.1v-71.9H1405V1848.2z"/>
			<path fill="#F9F9F9" d="M1405,1800.7H773.2v71.9c0,28.8,23.3,52.1,52.1,52.1H1405h73.3h507.1c28.8,0,52.1-23.3,52.1-52.1v-71.9&#10;&#9;&#9;&#9;&#9;H1405z"/>
			<path d="M 1478.300048828125 1924.699951171875 L 1405 1924.699951171875 L 1332.4000244140625 1924.699951171875 L 1322.5 2016.5 L 1405 2016.5 L 1488.0999755859375 2016.5 Z" fill="#C9D2D3"/>
			<path fill="#F9F9F9" d="M1488.1,2016.5H1405h-186.1c-6.7,0-12.1,5.4-12.1,12.1v40.1c0,6.7,5.4,12.1,12.1,12.1H1405h186.8&#10;&#9;&#9;&#9;&#9;c6.7,0,12.1-5.4,12.1-12.1v-40.1c0-6.7-5.4-12.1-12.1-12.1H1488.1z"/>
			<linearGradient id="SVGID_13_" gradientUnits="userSpaceOnUse" x1="773.212" y1="1863.4564" x2="2037.4622" y2="1863.4564">
				<stop offset="4.838710e-002" style="stop-color:#212121"/>
				<stop offset="1" style="stop-color:#333333"/>
			</linearGradient>
			<path fill="url(#SVGID_13_)" d="M1444.4,1863.5c0-8.5-6.9-15.3-15.3-15.3H1405v30.6h24.1&#10;&#9;&#9;&#9;&#9;C1437.5,1878.8,1444.4,1871.9,1444.4,1863.5z"/>
			<linearGradient id="SVGID_14_" gradientUnits="userSpaceOnUse" x1="1424.6637" y1="1924.6901" x2="1424.6637" y2="1800.7028">
				<stop offset="0" style="stop-color:#C1D4E1"/>
				<stop offset="1" style="stop-color:#DEEBF2"/>
			</linearGradient>
			<path fill="url(#SVGID_14_)" d="M1444.4,1863.5c0-8.5-6.9-15.3-15.3-15.3H1405v30.6h24.1&#10;&#9;&#9;&#9;&#9;C1437.5,1878.8,1444.4,1871.9,1444.4,1863.5z"/>
			<linearGradient id="SVGID_15_" gradientUnits="userSpaceOnUse" x1="1424.6637" y1="1924.6901" x2="1424.6637" y2="1800.7028">
				<stop offset="0" style="stop-color:#C1D4E1"/>
				<stop offset="1" style="stop-color:#DEEBF2"/>
			</linearGradient>
			<path fill="url(#SVGID_15_)" d="M1444.4,1863.5c0-8.5-6.9-15.3-15.3-15.3H1405v30.6h24.1&#10;&#9;&#9;&#9;&#9;C1437.5,1878.8,1444.4,1871.9,1444.4,1863.5z"/>
			<linearGradient id="SVGID_16_" gradientUnits="userSpaceOnUse" x1="1289.724" y1="1863.4564" x2="1444.3646" y2="1863.4564">
				<stop offset="4.838710e-002" style="stop-color:#212121"/>
				<stop offset="1" style="stop-color:#333333"/>
			</linearGradient>
			<path fill="url(#SVGID_16_)" d="M1429.1,1848.2H1405h-23.4c-8.5,0-15.3,6.9-15.3,15.3c0,8.5,6.9,15.3,15.3,15.3h23.4h24.1&#10;&#9;&#9;&#9;&#9;c8.5,0,15.3-6.9,15.3-15.3C1444.4,1855,1437.5,1848.2,1429.1,1848.2z"/>
		</g>
		<g>
			<linearGradient id="SVGID_17_" gradientUnits="userSpaceOnUse" x1="1405.3379" y1="1924.6903" x2="1405.3379" y2="1800.7026">
				<stop offset="0" style="stop-color:#DAE8F6"/>
				<stop offset="1" style="stop-color:#F9FCFF"/>
			</linearGradient>
			<path fill="url(#SVGID_17_)" d="M825.3,1924.7h1160.1c28.8,0,52.1-23.3,52.1-52.1v-71.9H773.2v71.9&#10;&#9;&#9;&#9;&#9;C773.2,1901.4,796.5,1924.7,825.3,1924.7z"/>
			<path d="M 831.400024 1070.599976 H 1979.300049 V 1736.899963 H 831.400024 V 1070.599976 Z" fill="#FFFFFF"/>
			<path d="M 831.400024 1070.599976 H 1979.300049 V 1104.999977 H 831.400024 V 1070.599976 Z" fill="#B1C1D0"/>
			<path d="M 831.400024 1105.099976 H 1979.300049 V 1139.499977 H 831.400024 V 1105.099976 Z" fill="#CEDFF1"/>
			<path d="M 831.400024 1105.099976 H 1697.300049 V 1139.499977 H 831.400024 V 1105.099976 Z" fill="#E4F4FC"/>
			<path d="M 839.400024 1109.099976 H 880.700024 V 1135.499975 H 839.400024 V 1109.099976 Z" fill="#9CABB8"/>
			<path d="M 831.400024 1139.5 H 1979.300049 V 1329.300003 H 831.400024 V 1139.5 Z" fill="#FC2D46"/>
			<path d="M 831.400024 1690.400024 H 1979.300049 V 1736.900024 H 831.400024 V 1690.400024 Z" fill="#C2C4C4"/>
			<path d="M 831.400024 1325 H 1979.300049 V 1348.299999 H 831.400024 V 1325 Z" fill="#C2C4C4"/>
			<path d="M 874.099976 1384.699951 H 1932.599976 V 1397.299952 H 874.099976 V 1384.699951 Z" fill="#C2C4C4"/>
			<path d="M 874.099976 1427.099976 H 1932.599976 V 1439.699976 H 874.099976 V 1427.099976 Z" fill="#C2C4C4"/>
			<path d="M 874.099976 1469.5 H 1932.599976 V 1482.1 H 874.099976 V 1469.5 Z" fill="#C2C4C4"/>
			<path d="M 874.099976 1511.900024 H 1932.599976 V 1524.500025 H 874.099976 V 1511.900024 Z" fill="#C2C4C4"/>
			<path d="M 874.099976 1554.300049 H 1932.599976 V 1566.900049 H 874.099976 V 1554.300049 Z" fill="#C2C4C4"/>
			<path d="M 874.099976 1596.699951 H 1932.599976 V 1609.299952 H 874.099976 V 1596.699951 Z" fill="#C2C4C4"/>
			<path d="M 874.099976 1639.099976 H 1932.599976 V 1651.699976 H 874.099976 V 1639.099976 Z" fill="#C2C4C4"/>
		</g>
	</g>
	<g>
		<path fill="#E9A022" d="M1105.8,1831.8c0,6.5-43.7,11.8-99.5,11.8c-55.8,0-99.5-5.3-99.5-11.8s43.7-13.2,99.5-13.2&#10;&#9;&#9;&#9;C1062,1818.6,1105.8,1825.3,1105.8,1831.8z"/>
		<g>
			<g>
				<path fill="#FBCC0A" d="M1112.8,2023.7h-21.3v-29.2h21.3c11.2,0,20.3-11.6,20.3-25.8v-48.2c0-14.2-9.1-25.8-20.3-25.8h-19v-29.2&#10;&#9;&#9;&#9;&#9;&#9;h19c27.3,0,49.5,24.7,49.5,55v48.2C1162.3,1999,1140.1,2023.7,1112.8,2023.7z"/>
			</g>
			<g>
				<path fill="#FCB615" d="M1120,1896.4v-30.3c-2.4-0.4-4.8-0.6-7.2-0.6h-19v29.2h19C1115.3,1894.7,1117.7,1895.3,1120,1896.4z"/>
				<path fill="#FCB615" d="M1120,1992.8c-2.2,1.1-4.7,1.7-7.2,1.7h-21.3v29.2h21.3c2.4,0,4.8-0.2,7.2-0.6V1992.8z"/>
			</g>
			<path fill="#FFDF00" d="M1046.6,2080.8h-81.3c-33.5,0-60.7-27.2-60.7-60.7v-183.4c0-4.8,3.9-8.8,8.8-8.8c0,0,46.9,4.4,92,4.4&#10;&#9;&#9;&#9;&#9;c47.4,0,93.1-4.4,93.1-4.4c4.8,0,8.8,3.9,8.8,8.8v183.4C1107.3,2053.6,1080.1,2080.8,1046.6,2080.8z"/>
			<g>
				<path fill="#FDEF56" d="M944.5,2020.7v-181h-24.1v178.2c0,26,21.1,47.1,47.1,47.1h8.1C957.4,2058.4,944.5,2041,944.5,2020.7z"/>
			</g>
		</g>
		<g>
			<path fill="#DEDEDF" d="M979.6,1799.4c0,0,0.6-1.3,1.4-3.4c0.4-1.1,0.8-2.4,1.2-3.8c0.4-1.5,0.7-3.1,0.8-4.8&#10;&#9;&#9;&#9;&#9;c0.1-1.7,0.1-3.5-0.2-5.3c-0.3-1.8-0.8-3.6-1.5-5.4c-0.7-1.8-1.7-3.6-2.9-5.4c-0.6-0.9-1.2-1.8-1.9-2.7l-1.1-1.3l-0.3-0.3&#10;&#9;&#9;&#9;&#9;l-0.4-0.5l-0.6-0.8l-0.6-0.8l-0.7-1.1c-0.5-0.7-0.9-1.5-1.3-2.2c-0.4-0.7-0.7-1.4-1-2.2c-0.3-0.8-0.6-1.5-0.8-2.3&#10;&#9;&#9;&#9;&#9;c-0.9-3.1-1.2-6.5-0.7-9.5c0.1-0.8,0.3-1.5,0.4-2.2c0.2-0.7,0.4-1.4,0.6-2.1c0.5-1.3,1-2.6,1.6-3.7c1.2-2.3,2.7-4.2,4.1-5.8&#10;&#9;&#9;&#9;&#9;c2.9-3.2,5.8-5.1,7.9-6.3c1-0.6,1.9-1,2.5-1.2c0.6-0.3,0.9-0.4,0.9-0.4s-0.7,1.2-1.8,3.2c-1.1,2-2.6,4.9-3.9,8.3&#10;&#9;&#9;&#9;&#9;c-0.7,1.7-1.2,3.5-1.6,5.4c-0.4,1.9-0.6,3.8-0.5,5.6c0.1,1.8,0.5,3.6,1.2,5.3c0.1,0.4,0.4,0.9,0.6,1.3c0.2,0.4,0.5,0.8,0.7,1.3&#10;&#9;&#9;&#9;&#9;c0.2,0.4,0.5,0.8,0.7,1.1l0.4,0.5l0.6,0.8l1.1,1.4c0.4,0.6,0.9,1.2,1.3,1.7l1.3,1.8c0.4,0.6,0.8,1.3,1.1,1.9&#10;&#9;&#9;&#9;&#9;c1.5,2.6,2.5,5.4,3.2,8.3c0.6,2.9,0.7,5.8,0.4,8.5c-0.4,2.7-1.2,5.1-2.2,7.1c-2,4.1-4.7,6.6-6.7,8&#10;&#9;&#9;&#9;&#9;C980.9,1798.9,979.6,1799.4,979.6,1799.4z"/>
		</g>
		<g>
			<path fill="#DEDEDF" d="M1013.9,1809.3c0,0,0.6-1.3,1.4-3.4c0.4-1.1,0.8-2.4,1.2-3.8c0.4-1.5,0.7-3.1,0.8-4.8&#10;&#9;&#9;&#9;&#9;c0.1-1.7,0.1-3.5-0.2-5.3c-0.3-1.8-0.8-3.6-1.5-5.4c-0.7-1.8-1.7-3.6-2.9-5.4c-0.6-0.9-1.2-1.8-1.9-2.7l-1.1-1.3l-0.3-0.3&#10;&#9;&#9;&#9;&#9;l-0.4-0.5l-0.6-0.8l-0.6-0.8l-0.7-1.1c-0.5-0.7-0.9-1.5-1.3-2.2c-0.4-0.7-0.7-1.4-1-2.2c-0.3-0.8-0.6-1.5-0.8-2.3&#10;&#9;&#9;&#9;&#9;c-0.9-3.1-1.2-6.5-0.7-9.5c0.1-0.8,0.3-1.5,0.4-2.2c0.2-0.7,0.4-1.4,0.6-2.1c0.5-1.3,1-2.6,1.6-3.7c1.2-2.3,2.7-4.2,4.1-5.8&#10;&#9;&#9;&#9;&#9;c2.9-3.2,5.8-5.1,7.9-6.3c1-0.6,1.9-1,2.5-1.2c0.6-0.3,0.9-0.4,0.9-0.4s-0.7,1.2-1.8,3.2c-1.1,2-2.6,4.9-3.9,8.3&#10;&#9;&#9;&#9;&#9;c-0.7,1.7-1.2,3.5-1.6,5.4c-0.4,1.9-0.6,3.8-0.5,5.6c0.1,1.8,0.5,3.6,1.2,5.3c0.1,0.4,0.4,0.9,0.6,1.3c0.2,0.4,0.5,0.8,0.7,1.3&#10;&#9;&#9;&#9;&#9;c0.2,0.4,0.5,0.8,0.7,1.1l0.4,0.5l0.6,0.8l1.1,1.4c0.4,0.6,0.9,1.2,1.3,1.7l1.3,1.8c0.4,0.6,0.8,1.3,1.1,1.9&#10;&#9;&#9;&#9;&#9;c1.5,2.6,2.5,5.4,3.2,8.3c0.6,2.9,0.7,5.8,0.4,8.5c-0.4,2.7-1.2,5.1-2.2,7.1c-2,4.1-4.7,6.6-6.7,8&#10;&#9;&#9;&#9;&#9;C1015.2,1808.8,1013.9,1809.3,1013.9,1809.3z"/>
		</g>
	</g>
	<g>
		<path fill="#E3E9E9" d="M1940.6,2080.8h-252.1c-13.9,0-25.1-11.2-25.1-25.1v-294.2c0-13.9,11.2-25.1,25.1-25.1h252.1&#10;&#9;&#9;&#9;c13.9,0,25.1,11.2,25.1,25.1v294.2C1965.7,2069.6,1954.5,2080.8,1940.6,2080.8z"/>
		<g>
			<path fill="#B4B4B5" d="M1936.8,1894.1c-1.1-1.9-2.8-3.4-4.9-4.3c-1.2-0.5-2.5-0.8-3.8-0.8h-3.5h-42.8h-3.5c-5.5,0-10,4.5-10,10&#10;&#9;&#9;&#9;&#9;v3.5v134.7v3.5c0,1.4,0.3,2.6,0.8,3.8c0.9,2.1,2.4,3.8,4.3,4.9c1.5,0.8,3.2,1.3,5,1.3h3.5h42.8h3.5c5.5,0,10-4.5,10-10v-3.5&#10;&#9;&#9;&#9;&#9;v-134.7v-3.5C1938.1,1897.3,1937.7,1895.6,1936.8,1894.1z"/>
			<path fill="#B4B4B5" d="M1763.7,1890.7c-1.2-0.5-2.5-0.8-3.8-0.8h-49.8c-5.5,0-10,4.5-10,10v49.8c0,1.4,0.3,2.6,0.8,3.8&#10;&#9;&#9;&#9;&#9;c0.9,2.1,2.4,3.8,4.3,4.9c1.5,0.8,3.2,1.3,5,1.3h3.5h42.8h3.5c5.5,0,10-4.5,10-10v-3.5v-42.8v-3.5c0-1.8-0.5-3.5-1.3-5&#10;&#9;&#9;&#9;&#9;C1767.5,1893,1765.8,1891.5,1763.7,1890.7z"/>
			<path fill="#B4B4B5" d="M1763.7,1981.3c-1.2-0.5-2.5-0.8-3.8-0.8h-3.5h-42.8h-3.5c-5.5,0-10,4.5-10,10v49.8&#10;&#9;&#9;&#9;&#9;c0,1.4,0.3,2.6,0.8,3.8c0.9,2.1,2.4,3.8,4.3,4.9c1.5,0.8,3.2,1.3,5,1.3h3.5h42.8h3.5c5.5,0,10-4.5,10-10v-3.5v-42.8v-3.5&#10;&#9;&#9;&#9;&#9;c0-1.8-0.5-3.5-1.3-5C1767.5,1983.6,1765.8,1982.1,1763.7,1981.3z"/>
			<path fill="#B4B4B5" d="M1847.9,1890.7c-1.2-0.5-2.5-0.8-3.8-0.8h-49.8c-5.5,0-10,4.5-10,10v3.5v42.8v3.5c0,1.4,0.3,2.6,0.8,3.8&#10;&#9;&#9;&#9;&#9;c0.9,2.1,2.4,3.8,4.3,4.9c1.5,0.8,3.2,1.3,5,1.3h3.5h42.8h3.5c5.5,0,10-4.5,10-10v-3.5v-42.8v-3.5c0-1.8-0.5-3.5-1.3-5&#10;&#9;&#9;&#9;&#9;C1851.7,1893,1850,1891.5,1847.9,1890.7z"/>
			<path fill="#B4B4B5" d="M1847.9,1981.3c-1.2-0.5-2.5-0.8-3.8-0.8h-3.5h-42.8h-3.5c-5.5,0-10,4.5-10,10v3.5v42.8v3.5&#10;&#9;&#9;&#9;&#9;c0,1.4,0.3,2.6,0.8,3.8c0.9,2.1,2.4,3.8,4.3,4.9c1.5,0.8,3.2,1.3,5,1.3h3.5h42.8h3.5c5.5,0,10-4.5,10-10v-3.5v-42.8v-3.5&#10;&#9;&#9;&#9;&#9;c0-1.8-0.5-3.5-1.3-5C1851.7,1983.6,1850,1982.1,1847.9,1981.3z"/>
		</g>
		<g>
			<g>
				<path fill="#293A47" d="M1920.8,2047.1h-42.8c-7.5,0-13.5-6.1-13.5-13.5v-134.7c0-7.5,6.1-13.5,13.5-13.5h42.8&#10;&#9;&#9;&#9;&#9;&#9;c7.5,0,13.5,6.1,13.5,13.5v134.7C1934.4,2041,1928.3,2047.1,1920.8,2047.1z"/>
				<g>
					<path fill="#3B525E" d="M1868.2,2040.8V1897c0-4.4,3.6-7.9,7.9-7.9h51.9c0.3,0,0.5,0,0.8,0c-0.1-1.1-0.3-2.1-0.7-3&#10;&#9;&#9;&#9;&#9;&#9;&#9;c-1.2-0.5-2.5-0.8-3.8-0.8h-49.8c-5.5,0-10,4.5-10,10V2037c0,1.4,0.3,2.6,0.8,3.8c0.9,0.4,1.9,0.6,3,0.7&#10;&#9;&#9;&#9;&#9;&#9;&#9;C1868.2,2041.3,1868.2,2041,1868.2,2040.8z"/>
					<path fill="#1D2C35" d="M1933,1890.3c-1.1-1.9-2.8-3.4-4.9-4.3c0.4,0.9,0.6,1.9,0.7,3c0,0.3,0,0.5,0,0.8v145.3&#10;&#9;&#9;&#9;&#9;&#9;&#9;c0,3.6-2.9,6.4-6.4,6.4h-53.4c-0.3,0-0.5,0-0.8,0c-1.1-0.1-2.1-0.3-3-0.7c0.9,2.1,2.4,3.8,4.3,4.9c1.5,0.8,3.2,1.3,5,1.3h49.8&#10;&#9;&#9;&#9;&#9;&#9;&#9;c5.5,0,10-4.5,10-10v-141.7C1934.4,1893.5,1933.9,1891.8,1933,1890.3z"/>
				</g>
			</g>
			<g>
				<g>
					<path fill="#EE4243" d="M1752.6,1956h-42.8c-7.5,0-13.5-6.1-13.5-13.5v-42.8c0-7.5,6.1-13.5,13.5-13.5h42.8&#10;&#9;&#9;&#9;&#9;&#9;&#9;c7.5,0,13.5,6.1,13.5,13.5v42.8C1766.2,1949.9,1760.1,1956,1752.6,1956z"/>
					<g>
						<path fill="#F16D74" d="M1700,1949.7v-51.9c0-4.4,3.6-7.9,7.9-7.9h51.9c0.3,0,0.5,0,0.8,0c-0.1-1.1-0.3-2.1-0.7-3&#10;&#9;&#9;&#9;&#9;&#9;&#9;&#9;c-1.2-0.5-2.5-0.8-3.8-0.8h-49.8c-5.5,0-10,4.5-10,10v49.8c0,1.4,0.3,2.6,0.8,3.8c0.9,0.4,1.9,0.6,3,0.7&#10;&#9;&#9;&#9;&#9;&#9;&#9;&#9;C1700,1950.2,1700,1950,1700,1949.7z"/>
						<path fill="#D22E37" d="M1764.8,1891.2c-1.1-1.9-2.8-3.4-4.9-4.3c0.4,0.9,0.6,1.9,0.7,3c0,0.3,0,0.5,0,0.8v53.4&#10;&#9;&#9;&#9;&#9;&#9;&#9;&#9;c0,3.6-2.9,6.4-6.4,6.4h-53.4c-0.3,0-0.5,0-0.8,0c-1.1-0.1-2.1-0.3-3-0.7c0.9,2.1,2.4,3.8,4.3,4.9c1.5,0.8,3.2,1.3,5,1.3h49.8&#10;&#9;&#9;&#9;&#9;&#9;&#9;&#9;c5.5,0,10-4.5,10-10v-49.8C1766.2,1894.3,1765.7,1892.6,1764.8,1891.2z"/>
					</g>
				</g>
				<path fill="#D22E37" d="M1753.3,1916.3h-13.1v-13.1c0-1.2-1-2.1-2.1-2.1h-8.8c-1.2,0-2.1,1-2.1,2.1v13.1H1714&#10;&#9;&#9;&#9;&#9;&#9;c-1.2,0-2.1,1-2.1,2.1v8.8c0,1.2,1,2.1,2.1,2.1h13.1v13.1c0,1.2,1,2.1,2.1,2.1h8.8c1.2,0,2.1-1,2.1-2.1v-13.1h13.1&#10;&#9;&#9;&#9;&#9;&#9;c1.2,0,2.1-1,2.1-2.1v-8.8C1755.5,1917.2,1754.5,1916.3,1753.3,1916.3z"/>
				<path fill="#FFFFFF" d="M1750.7,1913.7h-13.1v-13.1c0-1.2-1-2.1-2.1-2.1h-8.8c-1.2,0-2.1,1-2.1,2.1v13.1h-13.1&#10;&#9;&#9;&#9;&#9;&#9;c-1.2,0-2.1,1-2.1,2.1v8.8c0,1.2,1,2.1,2.1,2.1h13.1v13.1c0,1.2,1,2.1,2.1,2.1h8.8c1.2,0,2.1-1,2.1-2.1v-13.1h13.1&#10;&#9;&#9;&#9;&#9;&#9;c1.2,0,2.1-1,2.1-2.1v-8.8C1752.9,1914.6,1751.9,1913.7,1750.7,1913.7z"/>
			</g>
			<g>
				<g>
					<path fill="#EE4243" d="M1752.6,2046.6h-42.8c-7.5,0-13.5-6.1-13.5-13.5v-42.8c0-7.5,6.1-13.5,13.5-13.5h42.8&#10;&#9;&#9;&#9;&#9;&#9;&#9;c7.5,0,13.5,6.1,13.5,13.5v42.8C1766.2,2040.5,1760.1,2046.6,1752.6,2046.6z"/>
					<g>
						<path fill="#F16D74" d="M1700,2040.3v-51.9c0-4.4,3.6-7.9,7.9-7.9h51.9c0.3,0,0.5,0,0.8,0c-0.1-1.1-0.3-2.1-0.7-3&#10;&#9;&#9;&#9;&#9;&#9;&#9;&#9;c-1.2-0.5-2.5-0.8-3.8-0.8h-49.8c-5.5,0-10,4.5-10,10v49.8c0,1.4,0.3,2.6,0.8,3.8c0.9,0.4,1.9,0.6,3,0.7&#10;&#9;&#9;&#9;&#9;&#9;&#9;&#9;C1700,2040.8,1700,2040.6,1700,2040.3z"/>
						<path fill="#D22E37" d="M1764.8,1981.8c-1.1-1.9-2.8-3.4-4.9-4.3c0.4,0.9,0.6,1.9,0.7,3c0,0.3,0,0.5,0,0.8v53.4&#10;&#9;&#9;&#9;&#9;&#9;&#9;&#9;c0,3.6-2.9,6.4-6.4,6.4h-53.4c-0.3,0-0.5,0-0.8,0c-1.1-0.1-2.1-0.3-3-0.7c0.9,2.1,2.4,3.8,4.3,4.9c1.5,0.8,3.2,1.3,5,1.3h49.8&#10;&#9;&#9;&#9;&#9;&#9;&#9;&#9;c5.5,0,10-4.5,10-10v-49.8C1766.2,1984.9,1765.7,1983.2,1764.8,1981.8z"/>
					</g>
				</g>
				<path fill="#D22E37" d="M1752.3,2007.9H1715c-1.1,0-2,1-2,2.1v8.8c0,1.2,0.9,2.1,2,2.1h12.4h24.8c1.1,0,2-1,2-2.1v-8.8&#10;&#9;&#9;&#9;&#9;&#9;C1754.3,2008.8,1753.4,2007.9,1752.3,2007.9z"/>
				<path fill="#FFFFFF" d="M1749.7,2005.3h-37.2c-1.1,0-2,1-2,2.1v8.8c0,1.2,0.9,2.1,2,2.1h12.4h24.8c1.1,0,2-1,2-2.1v-8.8&#10;&#9;&#9;&#9;&#9;&#9;C1751.7,2006.3,1750.8,2005.3,1749.7,2005.3z"/>
			</g>
			<g>
				<g>
					<path fill="#EE4243" d="M1836.8,1956H1794c-7.5,0-13.5-6.1-13.5-13.5v-42.8c0-7.5,6.1-13.5,13.5-13.5h42.8&#10;&#9;&#9;&#9;&#9;&#9;&#9;c7.5,0,13.5,6.1,13.5,13.5v42.8C1850.3,1949.9,1844.3,1956,1836.8,1956z"/>
					<g>
						<path fill="#F16D74" d="M1784.2,1949.7v-51.9c0-4.4,3.6-7.9,7.9-7.9h51.9c0.3,0,0.5,0,0.8,0c-0.1-1.1-0.3-2.1-0.7-3&#10;&#9;&#9;&#9;&#9;&#9;&#9;&#9;c-1.2-0.5-2.5-0.8-3.8-0.8h-49.8c-5.5,0-10,4.5-10,10v49.8c0,1.4,0.3,2.6,0.8,3.8c0.9,0.4,1.9,0.6,3,0.7&#10;&#9;&#9;&#9;&#9;&#9;&#9;&#9;C1784.2,1950.2,1784.2,1950,1784.2,1949.7z"/>
						<path fill="#D22E37" d="M1849,1891.2c-1.1-1.9-2.8-3.4-4.9-4.3c0.4,0.9,0.6,1.9,0.7,3c0,0.3,0,0.5,0,0.8v53.4&#10;&#9;&#9;&#9;&#9;&#9;&#9;&#9;c0,3.6-2.9,6.4-6.4,6.4h-53.4c-0.3,0-0.5,0-0.8,0c-1.1-0.1-2.1-0.3-3-0.7c0.9,2.1,2.4,3.8,4.3,4.9c1.5,0.8,3.2,1.3,5,1.3h49.8&#10;&#9;&#9;&#9;&#9;&#9;&#9;&#9;c5.5,0,10-4.5,10-10v-49.8C1850.3,1894.3,1849.8,1892.6,1849,1891.2z"/>
					</g>
				</g>
				<path fill="#D22E37" d="M1836.9,1932.1l-9.3-9.3l9.3-9.3c0.8-0.8,0.8-2.2,0-3l-6.2-6.2c-0.8-0.8-2.2-0.8-3,0l-9.3,9.3l-9.3-9.3&#10;&#9;&#9;&#9;&#9;&#9;c-0.8-0.8-2.2-0.8-3,0l-6.2,6.2c-0.8,0.8-0.8,2.2,0,3l9.3,9.3l-9.3,9.3c-0.8,0.8-0.8,2.2,0,3l6.2,6.2c0.8,0.8,2.2,0.8,3,0&#10;&#9;&#9;&#9;&#9;&#9;l9.3-9.3l9.3,9.3c0.8,0.8,2.2,0.8,3,0l6.2-6.2C1837.7,1934.3,1837.7,1932.9,1836.9,1932.1z"/>
				<path fill="#FFFFFF" d="M1834.3,1929.5l-9.3-9.3l9.3-9.3c0.8-0.8,0.8-2.2,0-3l-6.2-6.2c-0.8-0.8-2.2-0.8-3,0l-9.3,9.3l-9.3-9.3&#10;&#9;&#9;&#9;&#9;&#9;c-0.8-0.8-2.2-0.8-3,0l-6.2,6.2c-0.8,0.8-0.8,2.2,0,3l9.3,9.3l-9.3,9.3c-0.8,0.8-0.8,2.2,0,3l6.2,6.2c0.8,0.8,2.2,0.8,3,0&#10;&#9;&#9;&#9;&#9;&#9;l9.3-9.3l9.3,9.3c0.8,0.8,2.2,0.8,3,0l6.2-6.2C1835.2,1931.7,1835.2,1930.3,1834.3,1929.5z"/>
			</g>
			<g>
				<g>
					<path fill="#EE4243" d="M1836.8,2046.6H1794c-7.5,0-13.5-6.1-13.5-13.5v-42.8c0-7.5,6.1-13.5,13.5-13.5h42.8&#10;&#9;&#9;&#9;&#9;&#9;&#9;c7.5,0,13.5,6.1,13.5,13.5v42.8C1850.3,2040.5,1844.3,2046.6,1836.8,2046.6z"/>
					<g>
						<path fill="#F16D74" d="M1784.2,2040.3v-51.9c0-4.4,3.6-7.9,7.9-7.9h51.9c0.3,0,0.5,0,0.8,0c-0.1-1.1-0.3-2.1-0.7-3&#10;&#9;&#9;&#9;&#9;&#9;&#9;&#9;c-1.2-0.5-2.5-0.8-3.8-0.8h-49.8c-5.5,0-10,4.5-10,10v49.8c0,1.4,0.3,2.6,0.8,3.8c0.9,0.4,1.9,0.6,3,0.7&#10;&#9;&#9;&#9;&#9;&#9;&#9;&#9;C1784.2,2040.8,1784.2,2040.6,1784.2,2040.3z"/>
						<path fill="#D22E37" d="M1849,1981.8c-1.1-1.9-2.8-3.4-4.9-4.3c0.4,0.9,0.6,1.9,0.7,3c0,0.3,0,0.5,0,0.8v53.4&#10;&#9;&#9;&#9;&#9;&#9;&#9;&#9;c0,3.6-2.9,6.4-6.4,6.4h-53.4c-0.3,0-0.5,0-0.8,0c-1.1-0.1-2.1-0.3-3-0.7c0.9,2.1,2.4,3.8,4.3,4.9c1.5,0.8,3.2,1.3,5,1.3h49.8&#10;&#9;&#9;&#9;&#9;&#9;&#9;&#9;c5.5,0,10-4.5,10-10v-49.8C1850.3,1984.9,1849.8,1983.2,1849,1981.8z"/>
					</g>
				</g>
				<g>
					<path fill="#D22E37" d="M1833.4,2008.8h-30.2c-0.9,0-1.6,0.7-1.6,1.6v6.8c0,0.9,0.7,1.6,1.6,1.6h10.1h20.1&#10;&#9;&#9;&#9;&#9;&#9;&#9;c0.9,0,1.6-0.7,1.6-1.6v-6.8C1835.1,2009.6,1834.4,2008.8,1833.4,2008.8z"/>
					<path d="M 1824.199951 1999 A 6 6 0 0 1 1818.199951 2005 A 6 6 0 0 1 1812.199951 1999 A 6 6 0 0 1 1818.199951 1993 A 6 6 0 0 1 1824.199951 1999 Z" fill="#D22E37"/>
					<path d="M 1824.199951 2029.800049 A 6 6 0 0 1 1818.199951 2035.800049 A 6 6 0 0 1 1812.199951 2029.800049 A 6 6 0 0 1 1818.199951 2023.800049 A 6 6 0 0 1 1824.199951 2029.800049 Z" fill="#D22E37"/>
				</g>
				<g>
					<path fill="#FFFFFF" d="M1830.9,2006.3h-30.2c-0.9,0-1.6,0.7-1.6,1.6v6.8c0,0.9,0.7,1.6,1.6,1.6h10.1h20.1&#10;&#9;&#9;&#9;&#9;&#9;&#9;c0.9,0,1.6-0.7,1.6-1.6v-6.8C1832.5,2007,1831.8,2006.3,1830.9,2006.3z"/>
					<path d="M 1821.699951 1996.400024 A 6 6 0 0 1 1815.699951 2002.400024 A 6 6 0 0 1 1809.699951 1996.400024 A 6 6 0 0 1 1815.699951 1990.400024 A 6 6 0 0 1 1821.699951 1996.400024 Z" fill="#FFFFFF"/>
					<path d="M 1821.699951 2027.300049 A 6 6 0 0 1 1815.699951 2033.300049 A 6 6 0 0 1 1809.699951 2027.300049 A 6 6 0 0 1 1815.699951 2021.300049 A 6 6 0 0 1 1821.699951 2027.300049 Z" fill="#FFFFFF"/>
				</g>
			</g>
			<g>
				<path fill="#1D2C35" d="M1918.4,1952.4h-34.7c-1,0-1.9,0.9-1.9,2v8.2c0,1.1,0.8,2,1.9,2h11.6h23.2c1,0,1.9-0.9,1.9-2v-8.2&#10;&#9;&#9;&#9;&#9;&#9;C1920.3,1953.3,1919.4,1952.4,1918.4,1952.4z"/>
				<path fill="#FFFFFF" d="M1916,1950h-34.7c-1,0-1.9,0.9-1.9,2v8.2c0,1.1,0.8,2,1.9,2h11.6h23.2c1,0,1.9-0.9,1.9-2v-8.2&#10;&#9;&#9;&#9;&#9;&#9;C1917.9,1950.9,1917,1950,1916,1950z"/>
				<path fill="#1D2C35" d="M1918.4,1972.8h-34.7c-1,0-1.9,0.9-1.9,2v8.2c0,1.1,0.8,2,1.9,2h11.6h23.2c1,0,1.9-0.9,1.9-2v-8.2&#10;&#9;&#9;&#9;&#9;&#9;C1920.3,1973.7,1919.4,1972.8,1918.4,1972.8z"/>
				<path fill="#FFFFFF" d="M1916,1970.4h-34.7c-1,0-1.9,0.9-1.9,2v8.2c0,1.1,0.8,2,1.9,2h11.6h23.2c1,0,1.9-0.9,1.9-2v-8.2&#10;&#9;&#9;&#9;&#9;&#9;C1917.9,1971.3,1917,1970.4,1916,1970.4z"/>
			</g>
		</g>
		<path fill="#293A47" d="M1965.7,1855.8v-94.5c0-13.8-11.2-24.9-24.9-24.9h-252.5c-13.8,0-24.9,11.2-24.9,24.9v94.5H1965.7z"/>
		<g>
			<path fill="#E7ECEC" d="M1959.3,1744.7C1959.3,1744.7,1959.3,1744.7,1959.3,1744.7C1959.3,1744.7,1959.3,1744.7,1959.3,1744.7z"/>
			<path fill="#E7ECEC" d="M1960.4,1745.9c0.1,0.1,0.1,0.1,0.2,0.2C1960.5,1746,1960.4,1746,1960.4,1745.9z"/>
			<path fill="#E7ECEC" d="M1963.3,1750.6C1963.3,1750.6,1963.3,1750.6,1963.3,1750.6C1963.3,1750.6,1963.3,1750.6,1963.3,1750.6z"/>
			<path fill="#E7ECEC" d="M1962.4,1748.8c0.1,0.1,0.1,0.2,0.2,0.3C1962.5,1749,1962.4,1748.9,1962.4,1748.8z"/>
			<path fill="#E7ECEC" d="M1963.9,1752c0,0.1,0.1,0.2,0.1,0.3C1964,1752.3,1964,1752.2,1963.9,1752z"/>
			<path fill="#E7ECEC" d="M1958,1743.3c0,0,0.1,0.1,0.1,0.1C1958.1,1743.4,1958.1,1743.3,1958,1743.3z"/>
			<path fill="#CCCBCB" d="M1952.8,2043c0,13.8-11.2,24.9-24.9,24.9h-252.5c-3.5,0-6.9-0.7-9.9-2.1c3.8,8.8,12.6,15,22.9,15h252.5&#10;&#9;&#9;&#9;&#9;c13.8,0,24.9-11.2,24.9-24.9v-200.1h-12.9V2043z"/>
			<path fill="#E7ECEC" d="M1952.3,1739.2C1952.3,1739.2,1952.3,1739.2,1952.3,1739.2C1952.3,1739.2,1952.3,1739.2,1952.3,1739.2z"/>
			<path fill="#E7ECEC" d="M1955.3,1741c0,0,0.1,0.1,0.1,0.1C1955.4,1741.1,1955.3,1741.1,1955.3,1741z"/>
			<path fill="#E7ECEC" d="M1961.5,1747.5C1961.5,1747.5,1961.5,1747.5,1961.5,1747.5C1961.5,1747.5,1961.5,1747.5,1961.5,1747.5z"/>
			<path fill="#E7ECEC" d="M1965.4,1757.5C1965.4,1757.5,1965.4,1757.6,1965.4,1757.5C1965.4,1757.6,1965.4,1757.5,1965.4,1757.5z"/>
			<path fill="#E7ECEC" d="M1965.6,1759.2c0,0.1,0,0.3,0,0.4C1965.6,1759.5,1965.6,1759.3,1965.6,1759.2z"/>
			<path fill="#E7ECEC" d="M1965,1755.5c0,0.1,0.1,0.3,0.1,0.4C1965.1,1755.8,1965.1,1755.6,1965,1755.5z"/>
			<path fill="#E7ECEC" d="M1964.6,1753.9C1964.6,1754,1964.6,1754,1964.6,1753.9C1964.6,1754,1964.6,1754,1964.6,1753.9z"/>
			<path fill="#293A47" d="M1958.2,1743.4c0.4,0.4,0.8,0.8,1.2,1.2C1959,1744.2,1958.6,1743.8,1958.2,1743.4z"/>
			<path fill="#293A47" d="M1965.4,1757.6c0.1,0.5,0.1,1.1,0.2,1.6C1965.6,1758.6,1965.5,1758.1,1965.4,1757.6z"/>
			<path fill="#293A47" d="M1955.4,1741.1c0.9,0.7,1.8,1.4,2.6,2.2C1957.2,1742.5,1956.3,1741.8,1955.4,1741.1z"/>
			<path fill="#293A47" d="M1965.7,1759.6c0,0.6,0.1,1.1,0.1,1.7C1965.7,1760.7,1965.7,1760.2,1965.7,1759.6z"/>
			<path fill="#293A47" d="M1952.4,1739.2c1,0.5,2,1.1,2.9,1.8C1954.4,1740.4,1953.4,1739.8,1952.4,1739.2z"/>
			<path fill="#293A47" d="M1961.5,1747.5c0.3,0.4,0.6,0.9,0.8,1.4C1962.1,1748.4,1961.8,1747.9,1961.5,1747.5z"/>
			<path fill="#293A47" d="M1962.5,1749.1c0.3,0.5,0.5,1,0.8,1.5C1963.1,1750.1,1962.8,1749.6,1962.5,1749.1z"/>
			<path fill="#293A47" d="M1964.6,1754c0.2,0.5,0.3,1,0.4,1.5C1964.9,1755,1964.8,1754.5,1964.6,1754z"/>
			<path fill="#293A47" d="M1963.3,1750.6c0.2,0.5,0.4,0.9,0.6,1.4C1963.7,1751.6,1963.5,1751.1,1963.3,1750.6z"/>
			<path fill="#293A47" d="M1964.1,1752.4c0.2,0.5,0.4,1,0.5,1.5C1964.4,1753.4,1964.3,1752.9,1964.1,1752.4z"/>
			<path fill="#293A47" d="M1959.3,1744.7c0.4,0.4,0.7,0.8,1.1,1.3C1960.1,1745.5,1959.7,1745.1,1959.3,1744.7z"/>
			<path fill="#293A47" d="M1960.5,1746.1c0.3,0.4,0.7,0.9,1,1.4C1961.2,1747,1960.9,1746.5,1960.5,1746.1z"/>
			<path fill="#293A47" d="M1965.1,1755.9c0.1,0.5,0.2,1.1,0.3,1.6C1965.3,1757,1965.2,1756.4,1965.1,1755.9z"/>
			<path fill="#1D2C35" d="M1965.7,1759.6c0-0.1,0-0.3,0-0.4c0-0.5-0.1-1.1-0.2-1.6c0,0,0,0,0-0.1c-0.1-0.5-0.2-1.1-0.3-1.6&#10;&#9;&#9;&#9;&#9;c0-0.1-0.1-0.3-0.1-0.4c-0.1-0.5-0.3-1-0.4-1.5c0,0,0,0,0-0.1c-0.2-0.5-0.3-1-0.5-1.5c0-0.1-0.1-0.2-0.1-0.3&#10;&#9;&#9;&#9;&#9;c-0.2-0.5-0.4-1-0.6-1.4c0,0,0,0,0-0.1c-0.2-0.5-0.5-1-0.8-1.5c-0.1-0.1-0.1-0.2-0.2-0.3c-0.3-0.5-0.5-0.9-0.8-1.4c0,0,0,0,0,0&#10;&#9;&#9;&#9;&#9;c-0.3-0.5-0.6-0.9-1-1.4c0-0.1-0.1-0.1-0.2-0.2c-0.3-0.4-0.7-0.9-1.1-1.3c0,0,0,0,0,0c-0.4-0.4-0.8-0.8-1.2-1.2&#10;&#9;&#9;&#9;&#9;c0,0-0.1-0.1-0.1-0.1c-0.8-0.8-1.7-1.5-2.6-2.2c0,0-0.1-0.1-0.1-0.1c-0.9-0.7-1.9-1.3-2.9-1.8c0,0-0.1,0-0.1,0&#10;&#9;&#9;&#9;&#9;c-0.5-0.3-1-0.5-1.6-0.7c1.3,3,2.1,6.4,2.1,9.9v107.4h12.9v-94.5C1965.7,1760.7,1965.7,1760.2,1965.7,1759.6z"/>
		</g>
		<path fill="#6CA8A2" d="M1928.1,1824.8h-226.5c-3.5,0-6.3-2.8-6.3-6.3v-45c0-3.5,2.8-6.3,6.3-6.3h226.5c3.5,0,6.3,2.8,6.3,6.3v45&#10;&#9;&#9;&#9;C1934.4,1822,1931.6,1824.8,1928.1,1824.8z"/>
		<path fill="#6CA8A2" d="M1928.1,1824.8h-226.5c-3.5,0-6.3-2.8-6.3-6.3v-45c0-3.5,2.8-6.3,6.3-6.3h226.5c3.5,0,6.3,2.8,6.3,6.3v45&#10;&#9;&#9;&#9;C1934.4,1822,1931.6,1824.8,1928.1,1824.8z"/>
		<path d="M 1773.9000244140625 1824.800048828125 L 1755.5 1824.800048828125 L 1776.4000244140625 1767.300048828125 L 1794.800048828125 1767.300048828125 Z" fill="#7FC5BB"/>
		<path d="M 1860.0999755859375 1824.800048828125 L 1847.699951171875 1824.800048828125 L 1868.5999755859375 1767.300048828125 L 1881 1767.300048828125 Z" fill="#7FC5BB"/>
		<path d="M 1807.9000244140625 1824.800048828125 L 1779.5 1824.800048828125 L 1800.4000244140625 1767.300048828125 L 1828.800048828125 1767.300048828125 Z" fill="#7FC5BB"/>
		<g>
			<path fill="#38867D" d="M1700.6,1776.2c0-2.6,2.1-4.6,4.6-4.6h229.1c-0.2-2.4-2.2-4.3-4.6-4.3H1700c-2.6,0-4.6,2.1-4.6,4.6v48.3&#10;&#9;&#9;&#9;&#9;c0,2.6,2.1,4.6,4.6,4.6h0.6c0-0.1,0-0.2,0-0.3V1776.2z"/>
		</g>
		<g>
			<g>
				<path d="M 1891.9000244140625 1777.4000244140625 L 1896.199951171875 1780.0999755859375 L 1909.800048828125 1780.0999755859375 L 1913.199951171875 1776.199951171875 L 1893.199951171875 1776.199951171875 Z" fill="#353535"/>
			</g>
			<g>
				<path d="M 1895.4000244140625 1781.300048828125 L 1891 1778.5999755859375 L 1891 1794.9000244140625 L 1892.5 1796.5 L 1895.4000244140625 1793.4000244140625 Z" fill="#353535"/>
			</g>
			<g>
				<path d="M 1891 1799.5 L 1891 1813.5 L 1895.4000244140625 1811.300048828125 L 1895.4000244140625 1800.5999755859375 L 1892.699951171875 1797.699951171875 Z" fill="#353535"/>
			</g>
			<g>
				<path fill="#353535" d="M1895.4,1812.7l-3.6,2.1c0,0,1.5,3,3.6,3.2c2,0.2,17.8,0,17.8,0l-3.1-4.1h-13c-0.4,0-0.7-0.1-0.9-0.4&#10;&#9;&#9;&#9;&#9;&#9;L1895.4,1812.7z"/>
			</g>
			<g>
				<path fill="#353535" d="M1911.1,1812.7l3.5,4.2c0,0,0.6-1,0.7-2.7c0.1-1.8,0-14.6,0-14.6l-1.8-1.8l-2.5,2.5V1812.7z"/>
			</g>
			<g>
				<path fill="#353535" d="M1910.7,1781.3l3.6-4.2c0.3-0.3,0.9-0.1,0.9,0.3v17.4l-1.6,1.6l-2.9-3V1781.3z"/>
			</g>
			<g>
				<path d="M 1919.099976 1813.699951 H 1923.299975 V 1817.899951 H 1919.099976 V 1813.699951 Z" fill="#353535"/>
			</g>
		</g>
		<g>
			<path fill="#3B525E" d="M1695.8,1743.4h252.5c4.7,0,9.1,1.3,12.8,3.6c-4.5-6.4-12-10.6-20.4-10.6h-252.5&#10;&#9;&#9;&#9;&#9;c-13.8,0-24.9,11.2-24.9,24.9v94.5h7.6v-87.4C1670.9,1754.6,1682.1,1743.4,1695.8,1743.4z"/>
		</g>
	</g>
	<g>
		<g>
			<path fill="#823907" d="M803.4,2198.6h1189.2c44.3-36.6,85.2-77.2,122.1-121.2H681.3C718.2,2121.5,759.1,2162,803.4,2198.6z"/>
			<path fill="#682C03" d="M1398,2412.1c223.4,0,428.4-78.3,589.2-209H808.8C969.6,2333.7,1174.6,2412.1,1398,2412.1z"/>
		</g>
		<path fill="#682C03" d="M803.4,2198.6h-22.1v4.4h27.5C807,2201.6,805.2,2200.1,803.4,2198.6z"/>
		<path fill="#682C03" d="M1992.6,2198.6c-1.8,1.5-3.6,3-5.4,4.4h29.6v-4.4H1992.6z"/>
		<path fill="#682C03" d="M808.8,2203h1178.4c1.8-1.5,3.6-2.9,5.4-4.4H803.4C805.2,2200.1,807,2201.6,808.8,2203z"/>
	</g>
	<g>
		<path d="M 337.299988 942.900024 H 658.699982 V 1403.400024 H 337.299988 V 942.900024 Z" fill="#A0DBF0"/>
		<path d="M 360.100006 963 H 681.5 V 1423.5 H 360.100006 V 963 Z" fill="#F8E33D"/>
		<g>
			<g>
				<linearGradient id="SVGID_18_" gradientUnits="userSpaceOnUse" x1="543.6607" y1="1451.3506" x2="543.6607" y2="990.8197">
					<stop offset="0" style="stop-color:#0D0D0D"/>
					<stop offset="0.283" style="stop-color:#1F1F20"/>
					<stop offset="1" style="stop-color:#4A4A4C"/>
				</linearGradient>
				<path d="M 383 990.799988 H 704.399994 V 1451.299988 H 383 V 990.799988 Z" fill="url(#SVGID_18_)"/>
				<path d="M 383 990.799988 H 704.399994 V 1028.799988 H 383 V 990.799988 Z" fill="#707171"/>
				<path d="M 383 1028.800049 H 704.399994 V 1066.800049 H 383 V 1028.800049 Z" fill="#B4B4B5"/>
				<g>
					<path fill="#D6D6D3" d="M643.6,1009.5c0,3.1-2.5,5.6-5.6,5.6c-3.1,0-5.6-2.5-5.6-5.6c0-3.1,2.5-5.6,5.6-5.6&#10;&#9;&#9;&#9;&#9;&#9;&#9;C641.1,1003.9,643.6,1006.4,643.6,1009.5z"/>
					<path fill="#D6D6D3" d="M665.5,1009.5c0,3.1-2.5,5.6-5.6,5.6c-3.1,0-5.6-2.5-5.6-5.6c0-3.1,2.5-5.6,5.6-5.6&#10;&#9;&#9;&#9;&#9;&#9;&#9;C663,1003.9,665.5,1006.4,665.5,1009.5z"/>
					<path fill="#D6D6D3" d="M687.3,1009.5c0,3.1-2.5,5.6-5.6,5.6c-3.1,0-5.6-2.5-5.6-5.6c0-3.1,2.5-5.6,5.6-5.6&#10;&#9;&#9;&#9;&#9;&#9;&#9;C684.8,1003.9,687.3,1006.4,687.3,1009.5z"/>
				</g>
				<g>
					<linearGradient id="SVGID_19_" gradientUnits="userSpaceOnUse" x1="391.0197" y1="1046.2556" x2="427.1357" y2="1046.2556">
						<stop offset="0" style="stop-color:#383738"/>
						<stop offset="1" style="stop-color:#414142"/>
					</linearGradient>
					<path d="M 391 1040 H 427.099998 V 1052.5 H 391 V 1040 Z" fill="url(#SVGID_19_)"/>
					<linearGradient id="SVGID_20_" gradientUnits="userSpaceOnUse" x1="438.5055" y1="1046.2556" x2="474.6215" y2="1046.2556">
						<stop offset="0" style="stop-color:#383738"/>
						<stop offset="1" style="stop-color:#414142"/>
					</linearGradient>
					<path d="M 438.5 1040 H 474.599998 V 1052.5 H 438.5 V 1040 Z" fill="url(#SVGID_20_)"/>
					<linearGradient id="SVGID_21_" gradientUnits="userSpaceOnUse" x1="485.9913" y1="1046.2556" x2="522.1073" y2="1046.2556">
						<stop offset="0" style="stop-color:#383738"/>
						<stop offset="1" style="stop-color:#414142"/>
					</linearGradient>
					<path d="M 486 1040 H 522.099998 V 1052.5 H 486 V 1040 Z" fill="url(#SVGID_21_)"/>
					<linearGradient id="SVGID_22_" gradientUnits="userSpaceOnUse" x1="533.4771" y1="1046.2556" x2="569.5931" y2="1046.2556">
						<stop offset="0" style="stop-color:#383738"/>
						<stop offset="1" style="stop-color:#414142"/>
					</linearGradient>
					<path d="M 533.5 1040 H 569.599998 V 1052.5 H 533.5 V 1040 Z" fill="url(#SVGID_22_)"/>
					<linearGradient id="SVGID_23_" gradientUnits="userSpaceOnUse" x1="676.1539" y1="1046.2556" x2="694.2119" y2="1046.2556">
						<stop offset="0" style="stop-color:#383738"/>
						<stop offset="1" style="stop-color:#414142"/>
					</linearGradient>
					<path d="M 676.200012 1040 H 694.300013 V 1052.5 H 676.200012 V 1040 Z" fill="url(#SVGID_23_)"/>
				</g>
				<path d="M 405.100006 1093.5 H 452.600006 V 1097.5 H 405.100006 V 1093.5 Z" fill="#ED3541"/>
				<path d="M 405.100006 1104.900024 H 470.600006 V 1108.900024 H 405.100006 V 1104.900024 Z" fill="#FFC10D"/>
				<path d="M 405.100006 1123 H 619.100006 V 1127 H 405.100006 V 1123 Z" fill="#B4B4B5"/>
				<path d="M 405.100006 1135 H 506.800003 V 1139 H 405.100006 V 1135 Z" fill="#B4B4B5"/>
				<path d="M 405.100006 1198.300049 H 452.600006 V 1202.300049 H 405.100006 V 1198.300049 Z" fill="#ED3541"/>
				<path d="M 405.100006 1209.699951 H 433.200006 V 1213.699951 H 405.100006 V 1209.699951 Z" fill="#FFC10D"/>
				<path d="M 437.799988 1209.699951 H 503.299988 V 1213.699951 H 437.799988 V 1209.699951 Z" fill="#FFC10D"/>
				<path d="M 405.100006 1227.800049 H 518.800003 V 1231.800049 H 405.100006 V 1227.800049 Z" fill="#B4B4B5"/>
				<path d="M 405.100006 1239.800049 H 506.800003 V 1243.800049 H 405.100006 V 1239.800049 Z" fill="#B4B4B5"/>
				<path d="M 405.100006 1264.800049 H 452.600006 V 1268.800049 H 405.100006 V 1264.800049 Z" fill="#ED3541"/>
				<path d="M 405.100006 1276.099976 H 433.200006 V 1280.099976 H 405.100006 V 1276.099976 Z" fill="#FFC10D"/>
				<path d="M 437.799988 1276.099976 H 503.299988 V 1280.099976 H 437.799988 V 1276.099976 Z" fill="#FFC10D"/>
				<path d="M 405.100006 1361.699951 H 452.600006 V 1365.699951 H 405.100006 V 1361.699951 Z" fill="#ED3541"/>
				<path d="M 405.100006 1373.099976 H 433.200006 V 1377.099976 H 405.100006 V 1373.099976 Z" fill="#FFC10D"/>
				<path d="M 437.799988 1373.099976 H 503.299988 V 1377.099976 H 437.799988 V 1373.099976 Z" fill="#FFC10D"/>
				<path d="M 405.100006 1294.199951 H 474.000008 V 1298.199951 H 405.100006 V 1294.199951 Z" fill="#B4B4B5"/>
				<path d="M 405.100006 1318.900024 H 444.600006 V 1322.900024 H 405.100006 V 1318.900024 Z" fill="#B4B4B5"/>
				<path d="M 405.100006 1332.300049 H 468.000008 V 1336.300049 H 405.100006 V 1332.300049 Z" fill="#B4B4B5"/>
				<path d="M 405.100006 1407.900024 H 494.100006 V 1411.900024 H 405.100006 V 1407.900024 Z" fill="#B4B4B5"/>
				<path d="M 405.100006 1391.800049 H 468.000008 V 1395.800049 H 405.100006 V 1391.800049 Z" fill="#B4B4B5"/>
				<path d="M 452.600006 1318.900024 H 494.100006 V 1322.900024 H 452.600006 V 1318.900024 Z" fill="#B4B4B5"/>
				<path d="M 405.100006 1306.199951 H 506.800003 V 1310.199951 H 405.100006 V 1306.199951 Z" fill="#B4B4B5"/>
				<path d="M 510.700012 1306.199951 H 612.400009 V 1310.199951 H 510.700012 V 1306.199951 Z" fill="#B4B4B5"/>
				<path d="M 518.799988 1239.800049 H 566.999989 V 1243.800049 H 518.799988 V 1239.800049 Z" fill="#B4B4B5"/>
				<path d="M 579 1239.800049 H 627.200001 V 1243.800049 H 579 V 1239.800049 Z" fill="#B4B4B5"/>
				<path d="M 405.100006 1162.400024 H 461.300007 V 1166.400024 H 405.100006 V 1162.400024 Z" fill="#B4B4B5"/>
				<path d="M 518.799988 1135 H 551.599987 V 1139 H 518.799988 V 1135 Z" fill="#B4B4B5"/>
				<path d="M 562.900024 1135 H 585.000025 V 1139 H 562.900024 V 1135 Z" fill="#B4B4B5"/>
			</g>
			<path d="M 543.700012 1135 H 551.600012 V 1139 H 543.700012 V 1135 Z" fill="#B4B4B5"/>
			<g>
				<path fill="#D6D6D3" d="M638,1003.9c-3.1,0-5.6,2.5-5.6,5.6c0,3.1,2.5,5.6,5.6,5.6c3.1,0,5.6-2.5,5.6-5.6&#10;&#9;&#9;&#9;&#9;&#9;C643.6,1006.4,641.1,1003.9,638,1003.9z"/>
				<path fill="#D6D6D3" d="M659.9,1003.9c-3.1,0-5.6,2.5-5.6,5.6c0,3.1,2.5,5.6,5.6,5.6c3.1,0,5.6-2.5,5.6-5.6&#10;&#9;&#9;&#9;&#9;&#9;C665.5,1006.4,663,1003.9,659.9,1003.9z"/>
				<path fill="#D6D6D3" d="M681.7,1003.9c-3.1,0-5.6,2.5-5.6,5.6c0,3.1,2.5,5.6,5.6,5.6c3.1,0,5.6-2.5,5.6-5.6&#10;&#9;&#9;&#9;&#9;&#9;C687.3,1006.4,684.8,1003.9,681.7,1003.9z"/>
				<path d="M 543.700012 1040 H 569.600012 V 1052.5 H 543.700012 V 1040 Z" fill="#B4B4B5"/>
				<linearGradient id="SVGID_24_" gradientUnits="userSpaceOnUse" x1="533.4769" y1="1046.2556" x2="569.5932" y2="1046.2556">
					<stop offset="0" style="stop-color:#383738"/>
					<stop offset="1" style="stop-color:#414142"/>
				</linearGradient>
				<path d="M 543.700012 1040 H 569.600012 V 1052.5 H 543.700012 V 1040 Z" fill="url(#SVGID_24_)"/>
				<path d="M 676.200012 1040 H 694.300013 V 1052.5 H 676.200012 V 1040 Z" fill="#B4B4B5"/>
				<linearGradient id="SVGID_25_" gradientUnits="userSpaceOnUse" x1="676.1539" y1="1046.2556" x2="694.2119" y2="1046.2556">
					<stop offset="0" style="stop-color:#383738"/>
					<stop offset="1" style="stop-color:#414142"/>
				</linearGradient>
				<path d="M 676.200012 1040 H 694.300013 V 1052.5 H 676.200012 V 1040 Z" fill="url(#SVGID_25_)"/>
			</g>
		</g>
	</g>
	<g>
		<g>
			
				<path d="M 2092.699951 1047.699951 H 2214.699951 V 1513.399963 H 2092.699951 V 1047.699951 Z" transform="matrix(0.3198 0.9475 -0.9475 0.3198 2678.1333 -1169.5767)" fill="#EFF4F9"/>
			
				<path d="M 2211.699951 1201.199951 H 2333.699951 V 1279.499954 H 2211.699951 V 1201.199951 Z" transform="matrix(0.3198 0.9475 -0.9475 0.3198 2721.0344 -1309.6727)" fill="#F48221"/>
			
				<path d="M 2122.199951 1231.5 H 2244.199951 V 1309.800003 H 2122.199951 V 1231.5 Z" transform="matrix(0.3199 0.9475 -0.9475 0.3199 2688.697 -1204.2714)" fill="#F16223"/>
			<path d="M 2076 1371.0999755859375 L 2037 1255.5999755859375 L 2111.199951171875 1230.5 L 2150.199951171875 1346.0999755859375 Z" fill="#EE3D24"/>
			
				<path d="M 1943 1291.900024 H 2065 V 1370.200027 H 1943 V 1291.900024 Z" transform="matrix(0.3199 0.9475 -0.9475 0.3199 2624.1589 -993.4412)" fill="#D62C29"/>
			<path d="M 2255.10009765625 1310.5999755859375 L 2235.60009765625 1252.9000244140625 L 2309.800048828125 1227.800048828125 L 2329.300048828125 1285.5999755859375 Z" fill="#F48221"/>
			
				<path d="M 2162.399902 1260.300049 H 2223.399902 V 1338.600052 H 2162.399902 V 1260.300049 Z" transform="matrix(0.3199 0.9475 -0.9475 0.3199 2722.6296 -1193.8772)" fill="#F16223"/>
			
				<path d="M 2072.800049 1290.599976 H 2133.800049 V 1368.899979 H 2072.800049 V 1290.599976 Z" transform="matrix(0.3198 0.9475 -0.9475 0.3198 2690.5007 -1088.4305)" fill="#EE3D24"/>
			
				<path d="M 1983.300049 1320.800049 H 2044.300049 V 1399.100052 H 1983.300049 V 1320.800049 Z" transform="matrix(0.3199 0.9475 -0.9475 0.3199 2658.0974 -983.0521)" fill="#D62C29"/>
		</g>
		<g>
			<path d="M 1945.5999755859375 1367.300048828125 L 1868.199951171875 1273 L 2228.199951171875 977.5 L 2305.5 1071.800048828125 Z" fill="#EFF4F9"/>
			
				<path d="M 2123 1053.599976 H 2245 V 1131.899979 H 2123 V 1053.599976 Z" transform="matrix(0.6345 0.7729 -0.7729 0.6345 1642.8878 -1288.6656)" fill="#B275B1"/>
			<path d="M 2119.300048828125 1224.5999755859375 L 2042 1130.4000244140625 L 2102.5 1080.699951171875 L 2179.800048828125 1175 Z" fill="#9854A0"/>
			
				<path d="M 1976.900024 1173.5 H 2098.900024 V 1251.800003 H 1976.900024 V 1173.5 Z" transform="matrix(0.6345 0.7729 -0.7729 0.6345 1682.1874 -1131.8802)" fill="#833693"/>
			<path d="M 1973.199951171875 1344.5999755859375 L 1895.800048828125 1250.300048828125 L 1956.300048828125 1200.699951171875 L 2033.699951171875 1294.9000244140625 Z" fill="#5E2773"/>
			<path d="M 2192.39990234375 1164.699951171875 L 2153.699951171875 1117.5 L 2214.199951171875 1067.9000244140625 L 2252.89990234375 1115 Z" fill="#9C679B"/>
			
				<path d="M 2099.800049 1137.099976 H 2160.800049 V 1215.399979 H 2099.800049 V 1137.099976 Z" transform="matrix(0.6345 0.7729 -0.7729 0.6345 1687.839 -1216.6136)" fill="#85488C"/>
			
				<path d="M 2026.699951 1197.099976 H 2087.699951 V 1275.399979 H 2026.699951 V 1197.099976 Z" transform="matrix(0.6345 0.7729 -0.7729 0.6345 1707.3638 -1138.2024)" fill="#742B81"/>
			<path d="M 1973.199951171875 1344.5999755859375 L 1934.5 1297.4000244140625 L 1995 1247.800048828125 L 2033.699951171875 1294.9000244140625 Z" fill="#511D63"/>
		</g>
		<g>
			<path d="M 1964.800048828125 1338.4000244140625 L 1852 1292 L 2029.300048828125 861.2999877929688 L 2142.10009765625 907.7000122070312 Z" fill="#EFF4F9"/>
			
				<path d="M 1983.900024 944.599976 H 2105.900024 V 1022.899979 H 1983.900024 V 944.599976 Z" transform="matrix(0.9247 0.3806 -0.3806 0.9247 528.3538 -704.3049)" fill="#5A90CC"/>
			<path d="M 2050.39990234375 1130.5 L 1937.5999755859375 1084.0999755859375 L 1967.4000244140625 1011.7000122070312 L 2080.199951171875 1058.0999755859375 Z" fill="#4879BB"/>
			
				<path d="M 1911.900024 1119.400024 H 2033.900024 V 1197.700027 H 1911.900024 V 1119.400024 Z" transform="matrix(0.9247 0.3806 -0.3806 0.9247 589.4786 -663.7573)" fill="#3661AC"/>
			
				<path d="M 1876 1206.800049 H 1998 V 1285.100052 H 1876 V 1206.800049 Z" transform="matrix(0.9247 0.3806 -0.3806 0.9247 620.0466 -643.4884)" fill="#164A97"/>
			
				<path d="M 2042.599976 956.200012 H 2103.599976 V 1034.500015 H 2042.599976 V 956.200012 Z" transform="matrix(0.9247 0.3806 -0.3806 0.9247 534.8685 -714.1412)" fill="#70ABDC"/>
			
				<path d="M 2006.599976 1043.599976 H 2067.599976 V 1121.899979 H 2006.599976 V 1043.599976 Z" transform="matrix(0.9247 0.3806 -0.3806 0.9247 565.3936 -693.8382)" fill="#5A90CC"/>
			<path d="M 2014.4000244140625 1217.9000244140625 L 1958 1194.699951171875 L 1987.800048828125 1122.300048828125 L 2044.199951171875 1145.5 Z" fill="#4879BB"/>
			
				<path d="M 1934.599976 1218.400024 H 1995.599976 V 1296.700027 H 1934.599976 V 1218.400024 Z" transform="matrix(0.9247 0.3806 -0.3806 0.9247 626.4716 -653.2658)" fill="#233C79"/>
		</g>
	</g>
	<g>
		<path fill="#B7B7B7" d="M1896.3,804.4c-4-0.8-6.5,4.2-3.4,6.9l24.1,20.5l0.3-0.1l24.5-10.6c3.6-1.5,3-6.7-0.8-7.5l-23.8-4.8&#10;&#9;&#9;&#9;L1896.3,804.4z"/>
		<path fill="#B7B7B7" d="M1917.3,761.6l-36.7-7.5c-2.5-0.5-4.7,1.4-4.7,3.9v8.1c0,1.9,1.3,3.5,3.2,3.9l38.3,7.8l38.4,7.8&#10;&#9;&#9;&#9;c2.5,0.5,4.7-1.4,4.7-3.9v-8.1c0-1.9-1.3-3.5-3.2-3.9L1917.3,761.6L1917.3,761.6z"/>
		<path fill="#B7B7B7" d="M1917.3,784.7l-36.7-7.5c-2.5-0.5-4.8,1.4-4.8,3.9v8.1c0,1.9,1.3,3.5,3.2,3.9l38.3,7.8v0l38.4,7.8&#10;&#9;&#9;&#9;c2.5,0.5,4.7-1.4,4.7-3.9v-8.1c0-1.9-1.3-3.5-3.2-3.9L1917.3,784.7L1917.3,784.7z"/>
		<path fill="#B7B7B7" d="M1917.3,745.9h-14c-3.1,0-3.6,4.5-0.5,5.1l14.5,2.9l40.1,7.9c1.6,0.3,3.1-0.9,3.1-2.5l0.1-10.8&#10;&#9;&#9;&#9;c0-1.4-1.1-2.6-2.6-2.6H1917.3L1917.3,745.9z"/>
		<path fill="#FFDA00" d="M2032.2,603.6c0-32.4-13.9-61.6-36.2-81.8c-19.7-17.9-45.8-28.8-74.5-28.8c-1.8,0-3.5,0.2-5.3,0.3v0.1&#10;&#9;&#9;&#9;c-58.2,3.3-104.3,51.3-104.3,110.3c0,20.2,5.4,39.2,14.9,55.5l0,0c0.5,0.9,1.1,1.8,1.6,2.7l36,50.9l8.4,11.9l12.3,11h31h1h36.8&#10;&#9;&#9;&#9;l12.5-12l46.4-57.6c0.2-0.4,0.5-0.7,0.7-1.1l1.7-2.5l-0.1,0C2026,645.4,2032.2,625.3,2032.2,603.6z"/>
		<path fill="#FFDA00" d="M1773.6,590c-5.6,0-10.1,4.5-10.1,10.1c0,5.6,4.5,10.1,10.1,10.1c5.6,0,10.1-4.5,10.1-10.1&#10;&#9;&#9;&#9;C1783.7,594.6,1779.2,590,1773.6,590z"/>
		<path d="M 1928.799952 460.5 A 10.1 10.1 0 0 1 1918.699951 470.6 A 10.1 10.1 0 0 1 1908.599951 460.5 A 10.1 10.1 0 0 1 1918.699951 450.4 A 10.1 10.1 0 0 1 1928.799952 460.5 Z" fill="#FFDA00"/>
		<path d="M 1817.699976 498.799988 A 10.1 10.1 0 0 1 1807.599976 508.899988 A 10.1 10.1 0 0 1 1797.499975 498.799988 A 10.1 10.1 0 0 1 1807.599976 488.699987 A 10.1 10.1 0 0 1 1817.699976 498.799988 Z" fill="#FFDA00"/>
		<path d="M 2081.6 600.099976 A 10.1 10.1 0 0 1 2071.5 610.199976 A 10.1 10.1 0 0 1 2061.4 600.099976 A 10.1 10.1 0 0 1 2071.5 589.999975 A 10.1 10.1 0 0 1 2081.6 600.099976 Z" fill="#FFDA00"/>
		<path d="M 2047.500025 498.799988 A 10.1 10.1 0 0 1 2037.400024 508.899988 A 10.1 10.1 0 0 1 2027.300024 498.799988 A 10.1 10.1 0 0 1 2037.400024 488.699987 A 10.1 10.1 0 0 1 2047.500025 498.799988 Z" fill="#FFDA00"/>
		<path d="M 2047.500025 693.099976 A 10.1 10.1 0 0 1 2037.400024 703.199976 A 10.1 10.1 0 0 1 2027.300024 693.099976 A 10.1 10.1 0 0 1 2037.400024 682.999975 A 10.1 10.1 0 0 1 2047.500025 693.099976 Z" fill="#FFDA00"/>
		<path d="M 2026.999954 589.400024 A 85.800003 85.800003 0 0 1 1941.199951 675.200027 A 85.800003 85.800003 0 0 1 1855.399948 589.400024 A 85.800003 85.800003 0 0 1 1941.199951 503.600021 A 85.800003 85.800003 0 0 1 2026.999954 589.400024 Z" opacity="0.76" fill="#FFEB2E"/>
		<g opacity="0.76">
			<path fill="#FFFF55" d="M2012.6,602.5c-1.1-0.9-2-2.1-2.4-3.6c-10.6-36.3-38.4-65.1-74.3-77.1c-3.7-1.2-5.7-5.2-4.5-9&#10;&#9;&#9;&#9;&#9;c1.2-3.7,5.2-5.7,9-4.5c40.3,13.4,71.5,45.8,83.4,86.5c1.1,3.8-1.1,7.7-4.8,8.8C2016.7,604.4,2014.3,603.8,2012.6,602.5z"/>
		</g>
	</g>
	<g>
		<g>
			<g>
				<path fill="#FFFFFF" d="M1589.3,699.7c-27.3,0-49.6-21.3-50.9-48.5c0-0.8-0.1-1.6-0.1-2.4c0-28.1,22.8-50.9,50.9-50.9&#10;&#9;&#9;&#9;&#9;&#9;c28.1,0,50.9,22.8,50.9,50.9S1617.4,699.7,1589.3,699.7z M1589.3,602.1c-25.7,0-46.6,20.9-46.6,46.6c0,0.7,0,1.5,0.1,2.2&#10;&#9;&#9;&#9;&#9;&#9;c1.2,24.9,21.6,44.4,46.6,44.4c25.7,0,46.6-20.9,46.6-46.6S1615,602.1,1589.3,602.1z"/>
			</g>
			<g>
				<path d="M 1591.199951171875 667.0999755859375 L 1563.5999755859375 637.7000122070312 L 1566.699951171875 634.7000122070312 L 1591 660.5 L 1639.199951171875 601.9000244140625 L 1642.5 604.7000122070312 Z" fill="#FFFFFF"/>
			</g>
		</g>
		<g>
			<g>
				<g>
					<path d="M 1601.4000244140625 560.9000244140625 L 1597.0999755859375 560.9000244140625 L 1597.0999755859375 509.5 L 1537.699951171875 509.5 L 1514.699951171875 534.7999877929688 L 1427.199951171875 534.7999877929688 L 1427.199951171875 560.9000244140625 L 1422.9000244140625 560.9000244140625 L 1422.9000244140625 530.5 L 1512.800048828125 530.5 L 1535.800048828125 505.20001220703125 L 1601.4000244140625 505.20001220703125 Z" fill="#FFFFFF"/>
				</g>
			</g>
			<g>
				<path d="M 1547.800048828125 671.5 L 1413 671.5 L 1402.800048828125 558.7999877929688 L 1622.0999755859375 558.7999877929688 L 1617.300048828125 609.2000122070312 L 1613 608.7999877929688 L 1617.300048828125 563.0999755859375 L 1407.5 563.0999755859375 L 1416.9000244140625 667.2000122070312 L 1547.800048828125 667.2000122070312 Z" fill="#FFFFFF"/>
			</g>
		</g>
	</g>
	<g>
		<g>
			<g>
				<path fill="#FFFFFF" d="M296.3,1625.6h-10.6c-8,0-14.5-6.5-14.5-14.5v-43.6c0-8,6.5-14.5,14.5-14.5H298v43.5&#10;&#9;&#9;&#9;&#9;&#9;c0,7.3,6,13.3,13.3,13.3h54.4l0.8,15.7h-39l2.7,37.5L296.3,1625.6z M363.2,1612.5h-51.9c-8.8,0-15.9-7.2-15.9-15.9v-40.8h-9.7&#10;&#9;&#9;&#9;&#9;&#9;c-6.5,0-11.8,5.3-11.8,11.8l0,43.6c0,6.5,5.3,11.8,11.8,11.8h11.8l29.6,32.7l-2.4-32.7h39L363.2,1612.5z"/>
			</g>
			<g>
				<path fill="#FFFFFF" d="M363.2,1612.5h-51.9c-8.8,0-15.9-7.2-15.9-15.9v-48.5c0-8.8,7.2-15.9,15.9-15.9h98.2&#10;&#9;&#9;&#9;&#9;&#9;c8.8,0,15.9,7.2,15.9,15.9v48.5c0,8.8-7.2,15.9-15.9,15.9h-12l-32.9,27.9L363.2,1612.5z M311.3,1534.8c-7.3,0-13.3,6-13.3,13.3&#10;&#9;&#9;&#9;&#9;&#9;v48.5c0,7.3,6,13.3,13.3,13.3h54.4l1.3,25.1l29.5-25.1h13c7.3,0,13.3-6,13.3-13.3v-48.5c0-7.3-6-13.3-13.3-13.3H311.3z"/>
			</g>
		</g>
		<g>
			<g>
				<path fill="#FFFFFF" d="M385,1573.3h10.7c0.5,0,1-0.4,1-1c0-0.5-0.4-1-1-1H385c-0.5,0-1,0.4-1,1&#10;&#9;&#9;&#9;&#9;&#9;C384,1572.8,384.5,1573.3,385,1573.3z"/>
			</g>
			<g>
				<path fill="#FFFFFF" d="M356,1573.3h10.6c0.5,0,1-0.4,1-1c0-0.5-0.4-1-1-1H356c-0.5,0-1,0.4-1,1&#10;&#9;&#9;&#9;&#9;&#9;C355,1572.8,355.5,1573.3,356,1573.3z"/>
			</g>
			<g>
				<path fill="#FFFFFF" d="M327,1573.3h10.7c0.5,0,1-0.4,1-1c0-0.5-0.4-1-1-1H327c-0.5,0-1,0.4-1,1&#10;&#9;&#9;&#9;&#9;&#9;C326,1572.8,326.4,1573.3,327,1573.3z"/>
			</g>
		</g>
	</g>
	<g>
		<g>
			<path fill="#FFFFFF" d="M751.8,906.6c-67.7,0-122.9-55.1-122.9-122.9s55.1-122.9,122.9-122.9S874.7,716,874.7,783.8&#10;&#9;&#9;&#9;&#9;S819.6,906.6,751.8,906.6z M751.8,666C686.9,666,634,718.8,634,783.8c0,64.9,52.8,117.8,117.8,117.8s117.8-52.8,117.8-117.8&#10;&#9;&#9;&#9;&#9;C869.6,718.8,816.8,666,751.8,666z"/>
		</g>
		<g>
			<path d="M 749.299988 663.400024 H 754.399988 V 904.000031 H 749.299988 V 663.400024 Z" fill="#FFFFFF"/>
		</g>
		<g>
			<path d="M 631.5 781.200012 H 872.100006 V 786.300012 H 631.5 V 781.200012 Z" fill="#FFFFFF"/>
		</g>
		<g>
			<path fill="#FFFFFF" d="M739.7,900.5c-38.3-40.8-56.5-83.3-54.1-126.3c3.6-64.7,53.8-108,54.3-108.5l3.3,3.9&#10;&#9;&#9;&#9;&#9;c-0.5,0.4-49,42.5-52.5,104.9c-2.3,41.5,15.4,82.7,52.7,122.4L739.7,900.5z"/>
		</g>
		<g>
			<path fill="#FFFFFF" d="M762.9,900.5l-3.7-3.5c37.3-39.7,55-80.9,52.7-122.4c-3.5-62.5-52-104.5-52.5-104.9l3.3-3.9&#10;&#9;&#9;&#9;&#9;c0.5,0.4,50.7,43.8,54.3,108.5C819.4,817.3,801.2,859.7,762.9,900.5z"/>
		</g>
		<g>
			<path fill="#FFFFFF" d="M751.8,730.1c-24.5,0-53.1-7.8-84.1-31l3.1-4.1c89,67,158.1,0.9,158.8,0.2l3.6,3.6&#10;&#9;&#9;&#9;&#9;C832.7,699.3,800.5,730.1,751.8,730.1z"/>
		</g>
		<g>
			<path fill="#FFFFFF" d="M829.9,876.1c-89-66.9-158.1-0.9-158.8-0.2l-3.6-3.6c0.7-0.7,73-69.8,165.4-0.2L829.9,876.1z"/>
		</g>
	</g>
	<g>
		<g>
			<path d="M 1257.199997 670.299988 A 230.699997 230.699997 0 0 1 1026.5 900.999985 A 230.699997 230.699997 0 0 1 795.800003 670.299988 A 230.699997 230.699997 0 0 1 1026.5 439.599991 A 230.699997 230.699997 0 0 1 1257.199997 670.299988 Z" fill="#ED3559"/>
			<path d="M 1213.199997 670.299988 A 186.699997 186.699997 0 0 1 1026.5 856.999985 A 186.699997 186.699997 0 0 1 839.800003 670.299988 A 186.699997 186.699997 0 0 1 1026.5 483.599991 A 186.699997 186.699997 0 0 1 1213.199997 670.299988 Z" fill="#FFFFFF"/>
			<path d="M 1167 670.299988 A 140.5 140.5 0 0 1 1026.5 810.799988 A 140.5 140.5 0 0 1 886 670.299988 A 140.5 140.5 0 0 1 1026.5 529.799988 A 140.5 140.5 0 0 1 1167 670.299988 Z" fill="#ED3559"/>
			<path d="M 1118.800003 670.299988 A 92.300003 92.300003 0 0 1 1026.5 762.599991 A 92.300003 92.300003 0 0 1 934.199997 670.299988 A 92.300003 92.300003 0 0 1 1026.5 577.999985 A 92.300003 92.300003 0 0 1 1118.800003 670.299988 Z" fill="#FFFFFF"/>
			<path d="M 1064.599998 670.299988 A 38.099998 38.099998 0 0 1 1026.5 708.399986 A 38.099998 38.099998 0 0 1 988.400002 670.299988 A 38.099998 38.099998 0 0 1 1026.5 632.199989 A 38.099998 38.099998 0 0 1 1064.599998 670.299988 Z" fill="#ED3559"/>
		</g>
		<g>
			<path fill="#2D2C2C" d="M1024,672.9L1024,672.9c-3.7-3.7-3.7-9.7,0-13.4l213.4-214.4c3.7-3.7,9.7-3.7,13.4,0l0,0&#10;&#9;&#9;&#9;&#9;c3.7,3.7,3.7,9.7,0,13.4l-213.4,214.4C1033.7,676.6,1027.7,676.6,1024,672.9z"/>
			<g>
				<path d="M 1255.300048828125 439.1000061035156 L 1242.300048828125 405.5 L 1217.0999755859375 430.79998779296875 L 1229.9000244140625 463.70001220703125 L 1229.4000244140625 464.20001220703125 L 1230.0999755859375 464.5 L 1230.300048828125 465.20001220703125 L 1230.800048828125 464.70001220703125 L 1263.800048828125 477.29998779296875 L 1289 452 Z" fill="#FFFFFF"/>
				<path d="M 1211.4000244140625 436.6000061035156 L 1186.0999755859375 462 L 1198.9000244140625 494.8999938964844 L 1198.4000244140625 495.3999938964844 L 1199.199951171875 495.6000061035156 L 1199.4000244140625 496.29998779296875 L 1199.9000244140625 495.79998779296875 L 1232.9000244140625 508.3999938964844 L 1258.0999755859375 483.1000061035156 L 1224.4000244140625 470.20001220703125 Z" fill="#FFFFFF"/>
			</g>
		</g>
	</g>
	<g>
		<g>
			<g>
				<g>
					<path fill="#FFFFFF" d="M2269.8,1440.5c-10-12.4-28.1-40.9-28.3-41.2l2.8-1.8c0.2,0.3,18.2,28.6,28.1,40.9L2269.8,1440.5z"/>
				</g>
				<g>
					<path fill="#FFFFFF" d="M2279.8,1461.7c-7.4,0-13.4-6-13.4-13.4c0-7.4,6-13.4,13.4-13.4c7.4,0,13.4,6,13.4,13.4&#10;&#9;&#9;&#9;&#9;&#9;&#9;C2293.2,1455.7,2287.2,1461.7,2279.8,1461.7z M2279.8,1438.2c-5.6,0-10.1,4.5-10.1,10.1s4.5,10.1,10.1,10.1&#10;&#9;&#9;&#9;&#9;&#9;&#9;c5.6,0,10.1-4.5,10.1-10.1S2285.4,1438.2,2279.8,1438.2z"/>
				</g>
				<g>
					<path fill="#FFFFFF" d="M2330.6,1434c-7.4,0-13.4-6-13.4-13.4c0-7.4,6-13.4,13.4-13.4s13.4,6,13.4,13.4&#10;&#9;&#9;&#9;&#9;&#9;&#9;C2344,1428,2338,1434,2330.6,1434z M2330.6,1410.5c-5.6,0-10.1,4.5-10.1,10.1c0,5.6,4.5,10.1,10.1,10.1&#10;&#9;&#9;&#9;&#9;&#9;&#9;c5.6,0,10.1-4.5,10.1-10.1C2340.7,1415,2336.1,1410.5,2330.6,1410.5z"/>
				</g>
				<g>
					
						<path d="M 2304.5 1416.599976 H 2307.8 V 1455.199974 H 2304.5 V 1416.599976 Z" transform="matrix(0.4843 0.8749 -0.8749 0.4843 2445.5066 -1277.1827)" fill="#FFFFFF"/>
				</g>
				<g>
					
						<path d="M 2325.300049 1452.400024 H 2385.20005 V 1455.700024 H 2325.300049 V 1452.400024 Z" transform="matrix(0.5839 0.8118 -0.8118 0.5839 2160.3647 -1307.0292)" fill="#FFFFFF"/>
				</g>
				<g>
					<path d="M 2376.300048828125 1483.800048828125 L 2347.39990234375 1476.5999755859375 L 2348.199951171875 1473.4000244140625 L 2373.5 1479.699951171875 L 2376.800048828125 1453.9000244140625 L 2380.10009765625 1454.300048828125 Z" fill="#FFFFFF"/>
				</g>
			</g>
		</g>
		<g>
			<path d="M 2359.10009765625 1516.9000244140625 L 2215.199951171875 1516.9000244140625 L 2215.199951171875 1379.699951171875 L 2218.5 1379.699951171875 L 2218.5 1513.5999755859375 L 2359.10009765625 1513.5999755859375 Z" fill="#FFFFFF"/>
		</g>
	</g>
</g>
<g>
	<g>
		<path fill="#FBC7A6" d="M2409.5,1741.5l-1.8,43c-1.1,32.5-315,3.8-356.5,2.4l-160.1-5.5c-41.5-1.4-74.3-28.9-73.2-61.4v0&#10;&#9;&#9;&#9;c1.1-32.5,35.7-57.7,77.2-56.2l441.2,16.4C2377.9,1681.5,2410.6,1709,2409.5,1741.5z"/>
		<path fill="#FBC7A6" d="M2145.9,1718.8L2145.9,1718.8c19.2,23.4,14.7,58.8-10,79.1l-95.2,78c-24.7,20.2-60.3,17.6-79.5-5.8l0,0&#10;&#9;&#9;&#9;c-19.2-23.4-14.7-58.8,10-79.1l95.2-78C2091.1,1692.7,2126.7,1695.3,2145.9,1718.8z"/>
		<path fill="#FBC7A6" d="M2603.4,1883.6l-136.6-172.4l-343.2,380.7l97.3,84.9c68.3,65.2,198.2,44.8,268.3-11.9l90.9-65.5&#10;&#9;&#9;&#9;C2650.1,2042.8,2660,1953.6,2603.4,1883.6z M2345.6,1857.9c-7.9,0-7.9-12.3,0-12.3C2353.5,1845.7,2353.5,1857.9,2345.6,1857.9z"/>
		<g>
			<path d="M 2800 2165.300048828125 L 2600.199951171875 1959.4000244140625 L 2388.300048828125 2185.60009765625 L 2777.199951171875 2576.89990234375 L 2800 2574.5 Z" fill="#FBC7A6"/>
			<path fill="#FCFDFF" d="M2800,2120.7l-38.4-39.2c-3.5-3.3-8.9-3.1-12.1,0.4l-239.8,254.8c-3.3,3.5-3.1,8.9,0.4,12.1l233.6,238.3&#10;&#9;&#9;&#9;&#9;l56.4-7.7V2120.7z"/>
			<path fill="#DBD8DD" d="M2800,2117.6l-38.4-36.1c-3.5-3.3-8.9-3.1-12.1,0.4l-28.2,30l32,30.1l-217.5,231.1l70.1,36.8l194.1-218.5&#10;&#9;&#9;&#9;&#9;V2117.6z"/>
			<path fill="#3A3A3A" d="M2800,2141.4l-246.3,261.8c-4.7,5-4.5,12.9,0.5,17.7l245.8,256.5V2141.4z"/>
			<path d="M 2800 2144 L 2732.300048828125 2227.800048828125 L 2800 2305 Z" fill="#2A2B2A"/>
		</g>
		<g>
			<g>
				
					<path d="M 1942 1461.5 H 2102.399994 V 1776.899994 H 1942 V 1461.5 Z" transform="matrix(-0.6824 0.731 -0.731 -0.6824 4585.7666 1245.9458)" fill="#323332"/>
			</g>
			<g>
				
					<path d="M 1876.900024 1456.599976 H 2037.300018 V 1660.299973 H 1876.900024 V 1456.599976 Z" transform="matrix(-0.6824 0.731 -0.731 -0.6824 4431.8271 1191.2886)" fill="#1D1D1D"/>
			</g>
			<g>
				<path fill="#75CDDC" d="M1348.9,993.9c-130.6,139.9-123,359.1,16.8,489.7c139.9,130.6,359.1,123,489.7-16.8&#10;&#9;&#9;&#9;&#9;&#9;c130.6-139.9,123-359.1-16.8-489.7C1698.7,846.5,1479.5,854,1348.9,993.9z M1836.1,1448.7c-120.6,129.2-323.1,136.1-452.3,15.5&#10;&#9;&#9;&#9;&#9;&#9;c-129.2-120.6-136.1-323.1-15.5-452.3c120.6-129.2,323.1-136.1,452.3-15.5C1949.7,1117,1956.7,1319.5,1836.1,1448.7z"/>
			</g>
			<g opacity="0.48">
				<path d="M 1926.899963 1230.300049 A 324.799988 324.799988 0 0 1 1602.099976 1555.100037 A 324.799988 324.799988 0 0 1 1277.299988 1230.300049 A 324.799988 324.799988 0 0 1 1602.099976 905.500061 A 324.799988 324.799988 0 0 1 1926.899963 1230.300049 Z" fill="#66C9DC"/>
			</g>
			<g>
				<path fill="#E6FEFF" d="M1738.1,1011.5c-3.4,0.6-7.1,0.2-10.5-1.4c-84.5-39.4-183-34.8-263.5,12.2c-8.3,4.9-19,2.1-23.9-6.3&#10;&#9;&#9;&#9;&#9;&#9;c-4.9-8.3-2.1-19,6.3-23.9c90.4-52.8,201-57.9,295.9-13.7c8.7,4.1,12.5,14.5,8.5,23.2C1748.4,1007,1743.5,1010.5,1738.1,1011.5z&#10;&#9;&#9;&#9;&#9;&#9;"/>
			</g>
			<g>
				<path fill="#4F4F4F" d="M2473.9,2044.2L2473.9,2044.2c-40.9,43.9-109.7,46.2-153.6,5.3l-297-277.3c-11.4-10.7-12-28.6-1.4-40&#10;&#9;&#9;&#9;&#9;&#9;l109.7-117.5c10.7-11.4,28.6-12,40-1.4l297,277.3C2512.4,1931.6,2514.8,2000.4,2473.9,2044.2z"/>
			</g>
			<g>
				<g>
					<path fill="#636464" d="M2045.2,1771.4c-11.4-10.7-12-28.6-1.4-40l109.7-117.5c2.6-2.8,5.6-4.9,8.8-6.4&#10;&#9;&#9;&#9;&#9;&#9;&#9;c-10.4-4-22.7-1.5-30.8,7.1l-109.7,117.5c-10.7,11.4-10,29.3,1.4,40l297,277.3c24.8,23.2,57.6,32.5,88.8,28.2&#10;&#9;&#9;&#9;&#9;&#9;&#9;c-24.1-1.6-47.8-11.2-66.9-29L2045.2,1771.4z"/>
				</g>
			</g>
			<g>
				<g>
					<path fill="#3A3A3A" d="M2132.9,1613.4c1.2,0.8,2.4,1.7,3.6,2.8l297,277.3c43.9,40.9,46.2,109.7,5.3,153.6l0,0&#10;&#9;&#9;&#9;&#9;&#9;&#9;c-14.9,16-33.5,26.4-53.3,31.3c32,2.6,64.7-8.9,88.3-34.1l0,0c40.9-43.9,38.6-112.6-5.3-153.6l-297-277.3&#10;&#9;&#9;&#9;&#9;&#9;&#9;C2160.6,1603.1,2143.7,1603.3,2132.9,1613.4z"/>
				</g>
			</g>
			<g>
				<path d="M 1227 1067 H 1982 V 1407.700012 H 1227 V 1067 Z" fill="#FC2D46"/>
				<g>
					<path fill="#FFFFFF" d="M1345.4,1141.4c0-3.1,1.6-4.8,4.9-5l37,0c4.5,0,6.8,2.2,6.8,6.5l0,127.6c0,8.3-1.7,16.1-5,23.3&#10;&#9;&#9;&#9;&#9;&#9;&#9;c-3.3,7.2-7.7,13.6-13.3,19c-5.6,5.4-12.1,9.6-19.5,12.7c-7.4,3.1-15.2,4.6-23.4,4.6c-4.9,0-9.6-0.5-14.3-1.6&#10;&#9;&#9;&#9;&#9;&#9;&#9;c-4.7-1.1-9.1-2.7-13.4-4.8c-4.2-2.1-8.2-4.8-11.8-7.9c-3.6-3.1-6.8-6.8-9.6-10.9c-0.3-0.1-0.4-0.8-0.4-2c0-2.2,0.7-3.8,2-4.8&#10;&#9;&#9;&#9;&#9;&#9;&#9;l21.9-20.5c0.7-0.6,1.4-1.1,2.1-1.4c0.8-0.4,1.5-0.6,2.1-0.6c1.3,0,2.4,0.5,3.6,1.4c1.1,0.9,2.4,1.9,3.8,3.1s3,2.2,4.8,3.1&#10;&#9;&#9;&#9;&#9;&#9;&#9;c1.8,0.9,4.1,1.4,6.7,1.4c1.9,0,3.8-0.4,5.7-1.1c1.8-0.8,3.5-1.8,4.8-3c1.4-1.3,2.5-2.7,3.3-4.5c0.8-1.7,1.3-3.5,1.3-5.5&#10;&#9;&#9;&#9;&#9;&#9;&#9;L1345.4,1141.4z"/>
					<path fill="#FFFFFF" d="M1410.8,1226.7c0-8.9,1.1-17.4,3.4-25.6c2.3-8.2,5.5-15.8,9.7-23c4.2-7.2,9.2-13.7,15-19.5&#10;&#9;&#9;&#9;&#9;&#9;&#9;c5.8-5.9,12.3-10.9,19.4-15c7.1-4.1,14.8-7.4,22.9-9.7c8.2-2.3,16.7-3.5,25.6-3.5c8.8,0,17.3,1.2,25.5,3.5&#10;&#9;&#9;&#9;&#9;&#9;&#9;c8.2,2.3,15.9,5.5,23,9.7s13.6,9.2,19.5,15c5.9,5.9,10.9,12.4,15,19.5c4.1,7.2,7.4,14.8,9.7,23c2.3,8.2,3.5,16.7,3.5,25.6&#10;&#9;&#9;&#9;&#9;&#9;&#9;c0,8.9-1.2,17.4-3.5,25.6c-2.3,8.2-5.5,15.8-9.7,22.9c-4.1,7.1-9.2,13.5-15,19.3c-5.9,5.8-12.4,10.8-19.5,15&#10;&#9;&#9;&#9;&#9;&#9;&#9;c-7.1,4.2-14.8,7.4-23,9.7c-8.2,2.3-16.7,3.4-25.5,3.4c-8.9,0-17.4-1.1-25.6-3.4c-8.2-2.3-15.8-5.5-22.9-9.7&#10;&#9;&#9;&#9;&#9;&#9;&#9;c-7.1-4.2-13.6-9.2-19.4-15c-5.8-5.8-10.8-12.3-15-19.3c-4.2-7.1-7.4-14.7-9.7-22.9C1412,1244.1,1410.8,1235.6,1410.8,1226.7z&#10;&#9;&#9;&#9;&#9;&#9;&#9; M1459.4,1226.6c0,7,1.2,13.4,3.5,19.5c2.3,6,5.6,11.3,9.8,15.8c4.2,4.5,9.2,8,15,10.6c5.8,2.6,12.1,3.8,19.1,3.8&#10;&#9;&#9;&#9;&#9;&#9;&#9;c6.9,0,13.3-1.3,19.1-3.8c5.8-2.6,10.8-6.1,15.1-10.5c4.2-4.5,7.5-9.7,9.8-15.8c2.3-6,3.5-12.5,3.5-19.5&#10;&#9;&#9;&#9;&#9;&#9;&#9;c0-6.9-1.2-13.3-3.5-19.4c-2.3-6.1-5.6-11.4-9.8-15.9c-4.2-4.5-9.2-8.1-15.1-10.7c-5.8-2.6-12.2-3.9-19.1-3.9&#10;&#9;&#9;&#9;&#9;&#9;&#9;c-6.9,0-13.3,1.3-19.1,3.9c-5.8,2.6-10.8,6.2-15,10.7c-4.2,4.5-7.5,9.8-9.8,15.9C1460.6,1213.3,1459.4,1219.8,1459.4,1226.6z"/>
					<path fill="#FFFFFF" d="M1623.7,1139.1c0-1.8,0.5-3.2,1.4-4.2c1-1,2.3-1.6,4.1-1.6l83.4,0c7.4,0,14.3,1.4,20.8,4.2&#10;&#9;&#9;&#9;&#9;&#9;&#9;c6.5,2.8,12.2,6.7,17.1,11.6c4.9,4.9,8.8,10.6,11.6,17.2c2.8,6.6,4.3,13.6,4.3,21.2c0,6.3-1,12.1-3,17.5&#10;&#9;&#9;&#9;&#9;&#9;&#9;c-2,5.4-4.8,10.2-8.4,14.5c6,5.5,10.8,12.1,14.3,19.7c3.5,7.6,5.3,15.7,5.3,24.2c0,7.6-1.5,14.8-4.4,21.7&#10;&#9;&#9;&#9;&#9;&#9;&#9;c-2.9,6.8-6.9,12.8-11.9,18c-5,5.1-10.8,9.2-17.5,12.2c-6.7,3-13.7,4.5-21,4.5l-90.8,0c-1.7,0-3-0.4-4-1.3&#10;&#9;&#9;&#9;&#9;&#9;&#9;c-1-0.9-1.5-2.2-1.5-4.1L1623.7,1139.1z M1718.3,1188.6c0-2.5-0.5-4.9-1.4-7c-0.9-2.2-2.2-4.1-3.9-5.8c-1.7-1.7-3.7-3-6-4&#10;&#9;&#9;&#9;&#9;&#9;&#9;c-2.4-1-4.9-1.4-7.7-1.4l-27,0l0,36.4l26.6,0c2.9,0,5.5-0.4,7.9-1.3c2.4-0.9,4.4-2.1,6.1-3.8c1.7-1.6,3-3.6,4-5.8&#10;&#9;&#9;&#9;&#9;&#9;&#9;C1717.8,1193.7,1718.3,1191.3,1718.3,1188.6z M1724.9,1261.6c0-2.5-0.5-5-1.4-7.5c-1-2.5-2.3-4.8-4-6.7c-1.7-2-3.8-3.6-6.2-4.8&#10;&#9;&#9;&#9;&#9;&#9;&#9;c-2.4-1.3-5-1.9-7.7-1.9l-33.2,0l0,41.9l33.2,0c2.8,0,5.3-0.6,7.7-1.8c2.4-1.2,4.4-2.7,6.2-4.7c1.8-2,3.1-4.2,4.1-6.7&#10;&#9;&#9;&#9;&#9;&#9;&#9;C1724.5,1266.8,1724.9,1264.2,1724.9,1261.6z"/>
					<path fill="#FFFFFF" d="M1814.6,1259.6c1.4,1.2,3.2,2.7,5.5,4.7c2.2,2,4.8,3.9,7.6,5.8c4.3,2.8,8.5,5.1,12.7,6.7&#10;&#9;&#9;&#9;&#9;&#9;&#9;c4.2,1.6,8.6,2.4,13.2,2.4c4.3,0,7.8-0.5,10.7-1.4c2.9-1,5.2-2.2,6.8-3.8c1.7-1.6,2.9-3.4,3.6-5.5c0.7-2.1,1.1-4.3,1.1-6.7&#10;&#9;&#9;&#9;&#9;&#9;&#9;c0-2.6-1-4.9-2.9-7c-2-2-4.4-3.9-7.2-5.5c-2.8-1.6-5.8-2.9-8.9-4.1c-3.1-1.1-5.8-2.1-8-2.8c-10-3.5-18.8-7.3-26.4-11.4&#10;&#9;&#9;&#9;&#9;&#9;&#9;c-7.5-4.1-13.8-8.6-18.8-13.6c-5-5-8.8-10.5-11.3-16.4c-2.5-6-3.8-12.7-3.8-20c0-7.8,1.6-14.8,4.7-21.2&#10;&#9;&#9;&#9;&#9;&#9;&#9;c3.1-6.4,7.6-11.8,13.4-16.3c5.8-4.5,12.8-8,21-10.5c8.2-2.5,17.4-3.7,27.5-3.7c7.6,0,14.9,0.9,21.9,2.6&#10;&#9;&#9;&#9;&#9;&#9;&#9;c7,1.7,13.9,4.5,20.7,8.2c2.8,1.7,5.5,3.4,8.1,5.2c2.6,1.8,4.8,3.5,6.7,5.2c1.9,1.7,3.5,3.3,4.6,4.8c1.1,1.5,1.7,2.8,1.7,3.9&#10;&#9;&#9;&#9;&#9;&#9;&#9;c0,1.1-0.3,2.1-0.8,3c-0.5,0.9-1.4,2-2.4,3.1l-19.2,20.5c-1.4,1.4-2.8,2.1-4.3,2.1c-1.2,0-2.2-0.3-3.2-1c-1-0.7-2-1.5-3.2-2.5&#10;&#9;&#9;&#9;&#9;&#9;&#9;l-1.1-1c-1.7-1.4-3.5-2.9-5.6-4.4c-2.1-1.5-4.3-2.9-6.6-4.1c-2.3-1.2-4.8-2.2-7.4-3c-2.6-0.8-5.2-1.2-7.9-1.2&#10;&#9;&#9;&#9;&#9;&#9;&#9;c-2.8,0-5.4,0.2-7.8,0.7c-2.4,0.5-4.6,1.2-6.4,2.2c-1.8,1-3.3,2.3-4.4,4c-1.1,1.6-1.6,3.6-1.6,6c0,2.3,0.6,4.4,1.8,6.1&#10;&#9;&#9;&#9;&#9;&#9;&#9;c1.2,1.7,2.9,3.3,5.3,4.8c2.3,1.5,5.3,2.8,8.7,4.1c3.5,1.3,7.5,2.7,12.1,4.2c8.9,2.9,17.1,6,24.6,9.2c7.5,3.2,14,7,19.4,11.4&#10;&#9;&#9;&#9;&#9;&#9;&#9;c5.4,4.4,9.7,9.7,12.7,15.8c3.1,6.1,4.6,13.5,4.6,22.2c0,9.2-1.9,17.6-5.7,25.1c-3.8,7.5-8.9,13.9-15.5,19.2&#10;&#9;&#9;&#9;&#9;&#9;&#9;c-6.6,5.3-14.3,9.4-23.2,12.2c-8.9,2.9-18.4,4.3-28.6,4.3c-9.6,0-19.1-1.7-28.4-5.2c-9.3-3.4-18-8.1-26-13.9&#10;&#9;&#9;&#9;&#9;&#9;&#9;c-3.3-2.4-6.2-4.8-8.5-7.2c-2.3-2.4-4.1-4.2-5.5-5.7l-0.4-0.4c-0.1-0.2-0.2-0.3-0.3-0.3c-0.1,0-0.2-0.1-0.3-0.2&#10;&#9;&#9;&#9;&#9;&#9;&#9;c-0.1-0.2-0.2-0.3-0.3-0.3c-0.1,0-0.2-0.1-0.3-0.2c-1.9-2.1-2.9-3.8-2.9-5c0-1.4,1-3,2.9-4.8l21.7-20.7&#10;&#9;&#9;&#9;&#9;&#9;&#9;c1.8-1.3,3.2-1.9,4.3-1.9c0.8,0,1.5,0.3,2.4,0.8C1812.4,1257.8,1813.4,1258.6,1814.6,1259.6z"/>
				</g>
			</g>
			<g>
				<g>
					<path fill="#3D3D3D" d="M1279.5,929.1c-166.4,178.2-156.8,457.6,21.4,623.9s457.6,156.8,623.9-21.4&#10;&#9;&#9;&#9;&#9;&#9;&#9;c166.4-178.2,156.8-457.6-21.4-623.9C1725.2,741.3,1445.8,750.9,1279.5,929.1z M1854.6,1466&#10;&#9;&#9;&#9;&#9;&#9;&#9;c-130.2,139.4-348.7,146.9-488.1,16.8c-139.4-130.2-146.9-348.7-16.8-488.1c130.2-139.4,348.7-146.9,488.1-16.8&#10;&#9;&#9;&#9;&#9;&#9;&#9;S1984.7,1326.6,1854.6,1466z"/>
				</g>
			</g>
			<g>
				<g>
					<path fill="#323332" d="M1569.5,790.1c107.1,0.6,214.3,39.9,298.8,118.7c178.2,166.4,187.8,445.7,21.4,623.9&#10;&#9;&#9;&#9;&#9;&#9;&#9;c-78.9,84.5-183.1,131-290,139c118.8,0.6,237.6-46.4,325.1-140.2c166.4-178.2,156.8-457.6-21.4-623.9&#10;&#9;&#9;&#9;&#9;&#9;&#9;C1809.7,820.1,1688,781.3,1569.5,790.1z"/>
				</g>
				<g>
					<g>
						<path fill="#505251" d="M1634.8,1670.5c-107.1-0.6-214.3-39.9-298.8-118.7c-178.2-166.4-187.8-445.7-21.4-623.9&#10;&#9;&#9;&#9;&#9;&#9;&#9;&#9;c78.9-84.5,183.1-131,290-139c-118.8-0.6-237.6,46.4-325.1,140.2c-166.4,178.2-156.8,457.6,21.4,623.9&#10;&#9;&#9;&#9;&#9;&#9;&#9;&#9;C1394.6,1640.5,1516.3,1679.3,1634.8,1670.5z"/>
					</g>
				</g>
			</g>
		</g>
		<g>
			<path fill="#FBC7A6" d="M2295.2,2059.7L2295.2,2059.7c-1,30.3-27.8,53.9-59.7,52.8l-123-4.2c-31.9-1.1-56.9-26.5-55.9-56.8l0,0&#10;&#9;&#9;&#9;&#9;c1-30.3,27.8-53.9,59.7-52.8l123,4.2C2271.2,2004,2296.3,2029.4,2295.2,2059.7z"/>
			<g>
				<path fill="#EEAD8A" d="M2291.9,2039.6c-7.7-20.7-28.1-35.8-52.6-36.7l-123-4.2c-21.6-0.7-40.7,9.8-51.2,26.1l182.6,6.3&#10;&#9;&#9;&#9;&#9;&#9;C2263.8,2031.6,2278.9,2034.7,2291.9,2039.6z"/>
			</g>
			<path fill="#EEAD8A" d="M2211.3,2060.9c-0.5,13.4,8.8,36.2,14.8,36.4l8.1,0.3c26.3,0.9,48.1-15,48.9-35.6v0&#10;&#9;&#9;&#9;&#9;c0.7-20.6-20-38-46.3-38.9l-8.1-0.3C2222.7,2022.6,2211.8,2046.6,2211.3,2060.9z"/>
			<path fill="#FCDED4" d="M2207.4,2057.5c-0.5,13.4,8.8,36.2,14.8,36.4l8.1,0.3c26.3,0.9,48.1-15,48.9-35.6l0,0&#10;&#9;&#9;&#9;&#9;c0.7-20.6-20-38-46.3-38.9l-8.1-0.3C2218.8,2019.1,2207.9,2043.1,2207.4,2057.5z"/>
		</g>
		<g>
			<path fill="#FBC7A6" d="M2234.1,1949.2L2234.1,1949.2c-1,30.3-27.8,53.9-59.7,52.8l-123-4.2c-31.9-1.1-56.9-26.5-55.9-56.8v0&#10;&#9;&#9;&#9;&#9;c1-30.3,27.8-53.9,59.7-52.8l123,4.2C2210.1,1893.5,2235.2,1918.9,2234.1,1949.2z"/>
			<g>
				<path fill="#EEAD8A" d="M2230.8,1929c-7.7-20.7-28.1-35.8-52.6-36.7l-123-4.2c-21.6-0.7-40.7,9.8-51.2,26.1l182.6,6.3&#10;&#9;&#9;&#9;&#9;&#9;C2202.8,1921.1,2217.8,1924.1,2230.8,1929z"/>
			</g>
			<path fill="#EEAD8A" d="M2150.2,1950.4c-0.5,13.4,8.8,36.2,14.8,36.4l8.1,0.3c26.3,0.9,48.1-15,48.9-35.6v0&#10;&#9;&#9;&#9;&#9;c0.7-20.6-20-38-46.3-38.9l-8.1-0.3C2161.6,1912,2150.7,1936,2150.2,1950.4z"/>
			<path fill="#FCDED4" d="M2146.3,1947c-0.5,13.4,8.8,36.2,14.8,36.4l8.1,0.3c26.3,0.9,48.1-15,48.9-35.6l0,0&#10;&#9;&#9;&#9;&#9;c0.7-20.6-20-38-46.3-38.9l-8.1-0.3C2157.7,1908.6,2146.8,1932.6,2146.3,1947z"/>
		</g>
		<g>
			<path fill="#FBC7A6" d="M2187.2,1842.6L2187.2,1842.6c-1,30.3-27.8,53.9-59.7,52.8l-123-4.2c-31.9-1.1-56.9-26.5-55.9-56.8v0&#10;&#9;&#9;&#9;&#9;c1-30.3,27.8-53.9,59.7-52.8l123,4.2C2163.2,1786.8,2188.2,1812.3,2187.2,1842.6z"/>
			<g>
				<path fill="#EEAD8A" d="M2183.9,1822.4c-7.7-20.7-28.1-35.8-52.6-36.7l-123-4.2c-21.6-0.7-40.7,9.8-51.2,26.1l182.6,6.3&#10;&#9;&#9;&#9;&#9;&#9;C2155.8,1814.4,2170.9,1817.5,2183.9,1822.4z"/>
			</g>
			<path fill="#EEAD8A" d="M2103.3,1843.8c-0.5,13.4,8.8,36.2,14.8,36.4l8.1,0.3c26.3,0.9,48.1-15,48.9-35.6h0&#10;&#9;&#9;&#9;&#9;c0.7-20.6-20-38-46.3-38.9l-8.1-0.3C2114.6,1805.4,2103.8,1829.4,2103.3,1843.8z"/>
			<path fill="#FCDED4" d="M2099.4,1840.3c-0.5,13.4,8.8,36.2,14.8,36.4l8.1,0.3c26.3,0.9,48.1-15,48.9-35.6l0,0&#10;&#9;&#9;&#9;&#9;c0.7-20.6-20-38-46.3-38.9l-8.1-0.3C2110.8,1802,2099.9,1826,2099.4,1840.3z"/>
		</g>
		<g>
			<path fill="#FBC7A6" d="M2491.2,1731.9c-4.8-5-9.8-10-15.8-13.1c-9.2-4.7-20.1-4.7-29.5-1.6s-17.6,8.9-25.1,15.2&#10;&#9;&#9;&#9;&#9;c-15.1,12.7-28.2,28.2-35.8,46.7c-11.4,27.9-9.1,61,1.4,90.6c10.6,29.6,28.9,56.2,49.2,80.5c11.7,14,24.2,27.5,38.4,38.8&#10;&#9;&#9;&#9;&#9;c4.2,3.4,25.4,15.5,30.6,15.8c3.1,0.2,33.3,3.1,36.2,2.1c41.4-14.5,24.5-68.1,35.4-111.4c1.2-4.7,2.2-9.4,2.2-14.3&#10;&#9;&#9;&#9;&#9;c0.1-9.4-3.4-18.6-7.2-27.4C2552.1,1809.1,2524.8,1767.4,2491.2,1731.9z"/>
			<g>
				<path fill="#FBC7A6" d="M2485,1736.4c0,0-38.3,107.5-52.1,97.6l-191.7-120.2c-43-26.6-56.2-83.1-29.6-126.1v0&#10;&#9;&#9;&#9;&#9;&#9;c8-12.9,24.9-16.9,37.9-8.9l232.3,144C2486.5,1725.8,2487.9,1731.8,2485,1736.4z"/>
				<g>
					<path fill="#FCDED4" d="M2244.6,1576.5c-10.7,38.2-12.3,74.5,40,102.4l0,0c6.6,4.1,15.3,2.2,19.6-4.3l28.8-43.9l-83.5-51.7&#10;&#9;&#9;&#9;&#9;&#9;&#9;C2247.9,1577.9,2246.3,1577.1,2244.6,1576.5z"/>
				</g>
			</g>
		</g>
	</g>
	<g>
		<path fill="#515151" d="M1906.9,1014.9c-3.7-1.4-6.9-3.9-9.3-7.4c-58.2-87.1-155.4-140.3-260.1-142.1c-10.8-0.2-19.5-9.1-19.3-20&#10;&#9;&#9;&#9;c0.2-10.8,9.1-19.5,20-19.3c117.6,2,226.8,61.7,292.1,159.5c6,9,3.6,21.2-5.4,27.2C1919.3,1016.6,1912.7,1017.1,1906.9,1014.9z"/>
	</g>
</g>
</svg>